<svg width="107" height="104" viewBox="0 0 107 104" fill="none" xmlns="http://www.w3.org/2000/svg">
<rect width="73.538" height="73.538" transform="matrix(0.718996 -0.695014 0.718996 0.695014 0.748047 51.9971)" fill="#F5F5F5"/>
<g clip-path="url(#clip0)">
<path d="M57.6975 52.2119H55.0282C54.7311 52.2119 54.4902 52.4527 54.4902 52.7499V62.4119C54.4902 62.7088 54.7311 62.9497 55.0282 62.9497H57.6975C57.9946 62.9497 58.2354 62.7088 58.2354 62.4119V52.7499C58.2354 52.4527 57.9946 52.2119 57.6975 52.2119ZM57.1595 61.874H55.5661V53.2876H57.1595V61.874Z" fill="black"/>
<path d="M44.8028 55.1621H42.1393C41.8424 55.1621 41.6016 55.4029 41.6016 55.7001V62.4118C41.6016 62.7087 41.8424 62.9495 42.1393 62.9495H44.8028C45.0999 62.9495 45.3407 62.7087 45.3407 62.4118V55.7001C45.3407 55.4029 45.0999 55.1621 44.8028 55.1621ZM44.2651 61.8739H42.6772V56.2378H44.2651V61.8739Z" fill="black"/>
<path d="M64.1407 44.4395H61.4772C61.1803 44.4395 60.9395 44.6803 60.9395 44.9774V62.412C60.9395 62.7089 61.1803 62.9497 61.4772 62.9497H64.1407C64.4378 62.9497 64.6786 62.7089 64.6786 62.412V44.9774C64.6786 44.6803 64.4378 44.4395 64.1407 44.4395ZM63.603 61.874H62.0151V45.5151H63.603V61.874Z" fill="black"/>
<path d="M51.2541 49.6035H48.5848C48.2877 49.6035 48.0469 49.8443 48.0469 50.1415V62.4119C48.0469 62.7088 48.2877 62.9496 48.5848 62.9496H51.2541C51.551 62.9496 51.7918 62.7088 51.7918 62.4119V50.1415C51.7918 49.8443 51.551 49.6035 51.2541 49.6035ZM50.7161 61.874H49.1225V50.6794H50.7161V61.874Z" fill="black"/>
<path d="M65.2103 36.0576H61.2962C60.9991 36.0576 60.7583 36.2984 60.7583 36.5953C60.7583 36.8925 60.9991 37.1333 61.2962 37.1333H63.9211L53.8383 47.3358L50.2269 43.6814C50.1258 43.5792 49.9879 43.5217 49.8443 43.5217C49.7007 43.5217 49.5628 43.5792 49.4617 43.6814L38.9034 54.365C38.6945 54.5764 38.6966 54.9171 38.9078 55.1258C39.0128 55.2294 39.1493 55.2811 39.286 55.2811C39.4246 55.2811 39.5634 55.2278 39.6686 55.1214L49.8443 44.8249L53.4557 48.4793C53.6579 48.6836 54.0187 48.6836 54.2209 48.4793L64.6723 37.9038V40.556C64.6723 40.8529 64.9131 41.0937 65.2103 41.0937C65.5072 41.0937 65.748 40.8529 65.748 40.556V36.5953C65.748 36.2984 65.5072 36.0576 65.2103 36.0576Z" fill="black"/>
</g>
<defs>
<clipPath id="clip0">
<rect width="27" height="27" fill="white" transform="translate(38.748 36)"/>
</clipPath>
</defs>
</svg>
