<svg width="107" height="104" viewBox="0 0 107 104" fill="none" xmlns="http://www.w3.org/2000/svg">
<rect width="73.538" height="73.538" transform="matrix(0.718996 -0.695014 0.718996 0.695014 0.375 51.9971)" fill="#F5F5F5"/>
<path d="M60.0663 39H47.6837C43.6536 39 40.375 42.1692 40.375 46.0649V58.0348C40.375 61.9302 43.6536 65.0995 47.6837 65.0995H60.0666C64.0964 65.0995 67.375 61.9302 67.375 58.0348V46.0649C67.375 42.1692 64.0964 39 60.0663 39V39ZM65.7921 58.0348C65.7921 61.0866 63.2236 63.5694 60.0663 63.5694H47.6837C44.5264 63.5694 41.9579 61.0866 41.9579 58.0348V46.0649C41.9579 43.0129 44.5264 40.5301 47.6837 40.5301H60.0666C63.2236 40.5301 65.7921 43.0129 65.7921 46.0649V58.0348Z" fill="black"/>
<path d="M53.8748 44.9131C49.8039 44.9131 46.4922 48.1144 46.4922 52.0494C46.4922 55.9844 49.8039 59.1857 53.8748 59.1857C57.9456 59.1857 61.2574 55.9844 61.2574 52.0494C61.2574 48.1144 57.9456 44.9131 53.8748 44.9131ZM53.8748 57.6556C50.6769 57.6556 48.075 55.1407 48.075 52.0494C48.075 48.9582 50.6769 46.4431 53.8748 46.4431C57.0728 46.4431 59.6745 48.9582 59.6745 52.0494C59.6745 55.1407 57.0728 57.6556 53.8748 57.6556Z" fill="black"/>
<path d="M61.4334 42.377C60.2304 42.377 59.252 43.323 59.252 44.4857C59.252 45.6486 60.2304 46.5946 61.4334 46.5946C62.6364 46.5946 63.6151 45.6486 63.6151 44.4857C63.6151 43.3228 62.6364 42.377 61.4334 42.377ZM61.4334 45.0643C61.1034 45.0643 60.8348 44.8047 60.8348 44.4857C60.8348 44.1665 61.1034 43.907 61.4334 43.907C61.7636 43.907 62.0323 44.1665 62.0323 44.4857C62.0323 44.8047 61.7636 45.0643 61.4334 45.0643Z" fill="black"/>
</svg>
