<svg width="107" height="103" viewBox="0 0 107 103" fill="none" xmlns="http://www.w3.org/2000/svg">
<rect width="73.538" height="73.538" transform="matrix(0.718996 -0.695014 0.718996 0.695014 0.748047 51.2568)" fill="#F5F5F5"/>
<path d="M40.2757 52.0276C40.2757 53.992 41.7257 55.6201 43.6261 55.9944L43.6261 59.9563C43.6261 60.4034 44.001 60.766 44.4637 60.766L47.8142 60.766C48.2766 60.766 48.6518 60.4034 48.6518 59.9563L48.6518 56.085C56.4306 56.2907 60.808 60.0139 62.5392 60.8186C62.798 60.9687 63.1202 60.9726 63.3828 60.8289C63.6454 60.6852 63.8077 60.416 63.8077 60.1243L63.8077 42.3115C63.8078 42.0199 63.6455 41.7508 63.3828 41.607C63.1202 41.4633 62.798 41.4672 62.5392 41.6173C60.8874 42.3726 56.1838 46.3599 48.0189 46.3599C47.4644 46.3599 44.8044 46.3599 44.4637 46.3599C42.1491 46.3598 40.2756 48.1705 40.2757 50.4082L40.2757 52.0276ZM45.3013 59.1467V56.076L46.9765 56.076L46.9765 59.1468L45.3013 59.1467ZM48.6518 47.9706C52.1878 47.8834 55.6437 47.0677 58.782 45.5849L58.782 56.8509C55.6436 55.3681 52.1878 54.5524 48.6518 54.4652L48.6518 47.9706ZM62.1325 43.7415L62.1325 58.6943C61.1139 58.1042 60.7866 57.9124 60.4573 57.7242L60.4572 44.7116C60.769 44.5336 61.3942 44.1692 62.1325 43.7415ZM44.4637 47.9792L46.9766 47.9792L46.9766 54.4566L44.4637 54.4566C43.0782 54.4566 41.9509 53.367 41.9509 52.0276L41.9509 50.4082C41.9509 49.0659 43.0747 47.9792 44.4637 47.9792Z" fill="black"/>
</svg>
