<svg width="107" height="107" viewBox="0 0 107 107" fill="none" xmlns="http://www.w3.org/2000/svg">
<rect x="0.324219" y="53.5264" width="74.7745" height="74.7745" transform="rotate(-45 0.324219 53.5264)" fill="#F5F5F5"/>
<g clip-path="url(#clip0)">
<path d="M49.2674 40.1734C46.4546 41.0094 44.026 42.809 42.4075 45.2567C42.1852 45.6577 42.0464 46.0996 41.9994 46.5557V42.1673H40.334V48.8291H46.9958V47.1636H43.2319C45.0966 43.5764 48.7823 41.3048 52.8249 41.2513C57.619 41.307 61.8212 44.4705 63.2006 49.0622L64.7995 48.5876C62.8339 41.975 55.88 38.2078 49.2674 40.1734Z" fill="black"/>
<path d="M58.6533 55.491V57.1564H62.4172C60.5525 60.7437 56.8668 63.0153 52.8242 63.0688C48.0301 63.013 43.8279 59.8496 42.4484 55.2578L40.8496 55.7325C42.8236 62.3425 49.7824 66.1008 56.3924 64.1269C59.2876 63.2623 61.7713 61.3775 63.3832 58.8219C63.5559 58.496 63.6473 58.1332 63.6497 57.7643V62.1528H65.3151V55.491H58.6533Z" fill="black"/>
</g>
<defs>
<clipPath id="clip0">
<rect width="25" height="25" fill="white" transform="translate(40.3242 39.6523)"/>
</clipPath>
</defs>
</svg>
