<svg width="106" height="106" viewBox="0 0 106 106" fill="none" xmlns="http://www.w3.org/2000/svg">
<rect x="0.121094" y="52.874" width="74.7745" height="74.7745" transform="rotate(-45 0.121094 52.874)" fill="#F5F5F5"/>
<path d="M53.1211 39C45.953 39 40.1211 44.8319 40.1211 52C40.1211 59.1681 45.953 65 53.1211 65C60.2892 65 66.1211 59.1681 66.1211 52C66.1211 44.8319 60.2892 39 53.1211 39ZM53.1211 63.375C46.8488 63.375 41.7461 58.2723 41.7461 52C41.7461 45.7278 46.8488 40.625 53.1211 40.625C59.3934 40.625 64.4961 45.7277 64.4961 52C64.4961 58.2723 59.3934 63.375 53.1211 63.375Z" fill="black"/>
<path d="M52.3086 58.5H53.9336V60.125H52.3086V58.5Z" fill="black"/>
<path d="M53.1211 43.875C50.4329 43.875 48.2461 46.0617 48.2461 48.75V50.375H49.8711V48.75C49.8711 46.9576 51.3287 45.5 53.1211 45.5C54.9135 45.5 56.3711 46.9576 56.3711 48.75C56.3711 49.9695 55.7212 51.1177 54.6754 51.7453L52.7029 52.9283C52.4585 53.0751 52.3085 53.3393 52.3085 53.625V56.875H53.9336V54.0852L55.5117 53.1386C57.0439 52.2182 57.9961 50.5368 57.9961 48.75C57.9961 46.0617 55.8093 43.875 53.1211 43.875Z" fill="black"/>
</svg>
