<svg width="107" height="106" viewBox="0 0 107 106" fill="none" xmlns="http://www.w3.org/2000/svg">
<rect x="0.714844" y="52.874" width="74.7745" height="74.7745" transform="rotate(-45 0.714844 52.874)" fill="#F5F5F5"/>
<path d="M59.8572 50.5789C59.8572 48.5278 58.1891 46.8596 56.138 46.8596V45H54.2783V46.8596H53.3485V45H51.4888V46.8596H47.7695V48.7193H49.6292V58.0175H47.7695V59.8772H51.4888V61.7368H53.3485V59.8772H54.2783V61.7368H56.138V59.8772C58.1891 59.8772 59.8572 58.2091 59.8572 56.1579C59.8572 55.0412 59.3533 54.0509 58.5722 53.3684C59.3533 52.6859 59.8572 51.6957 59.8572 50.5789ZM57.9976 56.1579C57.9976 57.1835 57.1635 58.0175 56.138 58.0175H51.4888V54.2982H56.138C57.1635 54.2982 57.9976 55.1323 57.9976 56.1579ZM51.4888 52.4386V48.7193H56.138C57.1635 48.7193 57.9976 49.5534 57.9976 50.5789C57.9976 51.6045 57.1635 52.4386 56.138 52.4386H51.4888Z" fill="black"/>
<circle cx="53.7148" cy="53" r="15.5" stroke="black"/>
</svg>
