<svg width="106" height="104" viewBox="0 0 106 104" fill="none" xmlns="http://www.w3.org/2000/svg">
<rect width="73.538" height="73.538" transform="matrix(0.718996 -0.695014 0.718996 0.695014 0 52.1074)" fill="#F5F5F5"/>
<path d="M63.7531 41.8377C61.0144 39.1903 57.3731 37.7324 53.5 37.7324C49.6269 37.7324 45.9856 39.1903 43.2469 41.8377C40.5083 44.485 39 48.0049 39 51.7488C39 55.4927 40.5083 59.0125 43.2469 61.6599C45.9856 64.3072 49.6269 65.7651 53.5 65.7651C57.3731 65.7651 61.0144 64.3072 63.7531 61.6599C66.4917 59.0125 68 55.4927 68 51.7488C68 48.0049 66.4917 44.485 63.7531 41.8377ZM53.5 64.1226C46.4416 64.1226 40.6992 58.5717 40.6992 51.7488C40.6992 44.9258 46.4416 39.375 53.5 39.375C60.5584 39.375 66.3008 44.9258 66.3008 51.7488C66.3008 58.5717 60.5584 64.1226 53.5 64.1226Z" fill="black"/>
<path d="M54.4094 50.9268H52.5894C51.5524 50.9268 50.7089 50.1113 50.7089 49.1091C50.7089 48.1067 51.5525 47.2913 52.5894 47.2913H56.2294C56.6986 47.2913 57.079 46.9236 57.079 46.47C57.079 46.0165 56.6986 45.6488 56.2294 45.6488H54.349V43.831C54.349 43.3775 53.9686 43.0098 53.4994 43.0098C53.0302 43.0098 52.6498 43.3775 52.6498 43.831V45.6488H52.5894C50.6156 45.6488 49.0098 47.2011 49.0098 49.1091C49.0098 51.017 50.6156 52.5693 52.5894 52.5693H54.4095C55.4463 52.5693 56.2899 53.3848 56.2899 54.387C56.2899 55.3893 55.4463 56.2048 54.4095 56.2048H50.7694C50.3002 56.2048 49.9198 56.5725 49.9198 57.026C49.9198 57.4796 50.3002 57.8473 50.7694 57.8473H52.6498V59.6651C52.6498 60.1187 53.0302 60.4864 53.4994 60.4864C53.9686 60.4864 54.349 60.1187 54.349 59.6651V57.8473H54.4094C56.3832 57.8473 57.989 56.295 57.989 54.387C57.989 52.4791 56.3832 50.9268 54.4094 50.9268Z" fill="black"/>
</svg>
