<svg width="107" height="106" viewBox="0 0 107 106" fill="none" xmlns="http://www.w3.org/2000/svg">
<rect x="0.941406" y="52.874" width="74.7745" height="74.7745" transform="rotate(-45 0.941406 52.874)" fill="#F5F5F5"/>
<path d="M64.0039 59.3701H55.0039C54.6934 59.3701 54.4414 59.6221 54.4414 59.9326C54.4414 60.2431 54.6934 60.4952 55.0039 60.4952H64.0039C64.3144 60.4952 64.5665 60.2431 64.5665 59.9326C64.5665 59.6221 64.3144 59.3701 64.0039 59.3701Z" fill="black"/>
<path d="M64.0039 61.624H55.0039C54.6934 61.624 54.4414 61.876 54.4414 62.1865C54.4414 62.497 54.6934 62.7491 55.0039 62.7491H64.0039C64.3144 62.7491 64.5665 62.497 64.5665 62.1865C64.5664 61.876 64.3144 61.624 64.0039 61.624Z" fill="black"/>
<path d="M44.8809 59.3701C43.9505 59.3701 43.1934 60.1272 43.1934 61.0576C43.1934 61.988 43.9505 62.7451 44.8809 62.7451C45.8113 62.7451 46.5684 61.988 46.5684 61.0576C46.5684 60.1272 45.8112 59.3701 44.8809 59.3701ZM44.8809 61.6201C44.5704 61.6201 44.3183 61.3681 44.3183 61.0576C44.3183 60.7471 44.5704 60.495 44.8809 60.495C45.1914 60.495 45.4434 60.7471 45.4434 61.0576C45.4433 61.3681 45.1914 61.6201 44.8809 61.6201Z" fill="black"/>
<path d="M44.8809 52.6201C43.9505 52.6201 43.1934 53.3772 43.1934 54.3076C43.1934 55.238 43.9505 55.9951 44.8809 55.9951C45.8113 55.9951 46.5684 55.238 46.5684 54.3076C46.5684 53.3772 45.8112 52.6201 44.8809 52.6201ZM44.8809 54.8701C44.5704 54.8701 44.3183 54.6181 44.3183 54.3076C44.3183 53.9971 44.5704 53.745 44.8809 53.745C45.1914 53.745 45.4434 53.9971 45.4434 54.3076C45.4434 54.6181 45.1914 54.8701 44.8809 54.8701Z" fill="black"/>
<path d="M64.0039 48.123H55.0039C54.6934 48.123 54.4414 48.3751 54.4414 48.6856C54.4414 48.9961 54.6934 49.2481 55.0039 49.2481H64.0039C64.3144 49.2481 64.5665 48.9961 64.5665 48.6856C64.5665 48.3751 64.3144 48.123 64.0039 48.123Z" fill="black"/>
<path d="M67.9414 48.6864V46.4363C67.9414 45.8963 67.7805 45.3957 67.515 44.9659C67.5072 44.9502 67.506 44.9322 67.4971 44.9176L64.0185 39.3264C63.5022 38.4961 62.6089 38 61.6302 38H47.256C46.2762 38 45.384 38.4961 44.8676 39.3264L41.3892 44.9176C41.3835 44.9266 41.3835 44.9367 41.3779 44.9469C41.1057 45.38 40.9414 45.8885 40.9414 46.4363V48.6864C40.9414 49.6088 41.3948 50.4234 42.0844 50.9364C41.3948 51.4505 40.9414 52.2639 40.9414 53.1863V55.4364C40.9414 56.3588 41.3948 57.1734 42.0844 57.6864C41.3948 58.2005 40.9414 59.0139 40.9414 59.9363V62.1864C40.9414 63.7366 42.2037 64.9988 43.7539 64.9988H65.1289C66.6791 64.9988 67.9414 63.7366 67.9414 62.1864V59.9363C67.9414 59.0139 67.488 58.1993 66.7983 57.6863C67.488 57.1734 67.9414 56.3588 67.9414 55.4364V53.1863C67.9414 52.2639 67.488 51.4493 66.7984 50.9363C67.488 50.4234 67.9414 49.61 67.9414 48.6864ZM45.8228 39.9204C46.1322 39.422 46.6676 39.1239 47.2549 39.1239H61.629C62.2162 39.1239 62.7518 39.422 63.0611 39.9204L65.382 43.6497C65.2976 43.6419 65.2155 43.6239 65.1289 43.6239H43.7539C43.6672 43.6239 43.5862 43.6418 43.5019 43.6497L45.8228 39.9204ZM66.8164 59.9363V62.1864C66.8164 63.1167 66.0593 63.8739 65.1289 63.8739H43.7539C42.8235 63.8739 42.0664 63.1167 42.0664 62.1864V59.9363C42.0664 59.0059 42.8235 58.2488 43.7539 58.2488H65.1289C66.0593 58.2488 66.8164 59.006 66.8164 59.9363ZM66.8164 53.1863V55.4364C66.8164 56.3667 66.0593 57.1239 65.1289 57.1239H43.7539C42.8235 57.1239 42.0664 56.3667 42.0664 55.4364V53.1863C42.0664 52.2559 42.8235 51.4988 43.7539 51.4988H65.1289C66.0593 51.4988 66.8164 52.256 66.8164 53.1863ZM66.8164 48.6864C66.8164 49.6167 66.0593 50.3739 65.1289 50.3739H43.7539C42.8235 50.3739 42.0664 49.6167 42.0664 48.6864V46.4363C42.0664 45.5059 42.8235 44.7488 43.7539 44.7488H65.1289C66.0593 44.7488 66.8164 45.5059 66.8164 46.4363V48.6864H66.8164Z" fill="black"/>
<path d="M64.0039 45.8701H55.0039C54.6934 45.8701 54.4414 46.1221 54.4414 46.4326C54.4414 46.7431 54.6934 46.9952 55.0039 46.9952H64.0039C64.3144 46.9952 64.5665 46.7431 64.5665 46.4326C64.5665 46.1221 64.3144 45.8701 64.0039 45.8701Z" fill="black"/>
<path d="M64.0039 54.8721H55.0039C54.6934 54.8721 54.4414 55.1241 54.4414 55.4346C54.4414 55.7451 54.6934 55.9971 55.0039 55.9971H64.0039C64.3144 55.9971 64.5665 55.7451 64.5665 55.4346C64.5665 55.1241 64.3144 54.8721 64.0039 54.8721Z" fill="black"/>
<path d="M64.0039 52.6201H55.0039C54.6934 52.6201 54.4414 52.8721 54.4414 53.1826C54.4414 53.4931 54.6934 53.7452 55.0039 53.7452H64.0039C64.3144 53.7452 64.5665 53.4931 64.5665 53.1826C64.5665 52.8721 64.3144 52.6201 64.0039 52.6201Z" fill="black"/>
<path d="M44.8809 45.8701C43.9505 45.8701 43.1934 46.6272 43.1934 47.5576C43.1934 48.488 43.9505 49.2451 44.8809 49.2451C45.8113 49.2451 46.5684 48.488 46.5684 47.5576C46.5684 46.6272 45.8112 45.8701 44.8809 45.8701ZM44.8809 48.1201C44.5704 48.1201 44.3183 47.8681 44.3183 47.5576C44.3183 47.2471 44.5704 46.995 44.8809 46.995C45.1914 46.995 45.4434 47.2471 45.4434 47.5576C45.4434 47.8681 45.1914 48.1201 44.8809 48.1201Z" fill="black"/>
</svg>
