<svg width="107" height="104" viewBox="0 0 107 104" fill="none" xmlns="http://www.w3.org/2000/svg">
<rect width="73.538" height="73.538" transform="matrix(0.718996 -0.695014 0.718996 0.695014 0.748047 51.9971)" fill="#F5F5F5"/>
<path d="M35.982 58.5857L33.406 50.2977L32.334 49.8177V49.5617H36.27V49.8177L35.07 50.2657L36.766 55.9617H36.878L39.422 49.5137H40.142L42.574 55.9617H42.654L44.27 50.2977L43.07 49.8177V49.5617H46.222V49.8177L45.262 50.2977L42.718 58.5857H41.934L39.406 52.0737H39.342L36.766 58.5857H35.982Z" fill="black"/>
<path d="M50.3257 58.5857L47.7497 50.2977L46.6777 49.8177V49.5617H50.6137V49.8177L49.4137 50.2657L51.1097 55.9617H51.2217L53.7657 49.5137H54.4857L56.9177 55.9617H56.9977L58.6137 50.2977L57.4137 49.8177V49.5617H60.5657V49.8177L59.6057 50.2977L57.0617 58.5857H56.2777L53.7497 52.0737H53.6857L51.1097 58.5857H50.3257Z" fill="black"/>
<path d="M64.6695 58.5857L62.0935 50.2977L61.0215 49.8177V49.5617H64.9575V49.8177L63.7575 50.2657L65.4535 55.9617H65.5655L68.1095 49.5137H68.8295L71.2615 55.9617H71.3415L72.9575 50.2977L71.7575 49.8177V49.5617H74.9095V49.8177L73.9495 50.2977L71.4055 58.5857H70.6215L68.0935 52.0737H68.0295L65.4535 58.5857H64.6695Z" fill="black"/>
</svg>
