<svg width="107" height="106" viewBox="0 0 107 106" fill="none" xmlns="http://www.w3.org/2000/svg">
<rect x="0.847656" y="52.874" width="74.7745" height="74.7745" transform="rotate(-45 0.847656 52.874)" fill="#F5F5F5"/>
<path d="M52.7847 40.4073C54.2407 40.4073 55.421 39.227 55.421 37.7711C55.421 36.3151 54.2407 35.1348 52.7847 35.1348C51.3288 35.1348 50.1484 36.3151 50.1484 37.7711C50.1484 39.227 51.3287 40.4073 52.7847 40.4073ZM52.7847 36.4529C53.5127 36.4529 54.1029 37.043 54.1029 37.7711C54.1029 38.4991 53.5127 39.0892 52.7847 39.0892C52.0567 39.0892 51.4666 38.4991 51.4666 37.7711C51.4666 37.043 52.0567 36.4529 52.7847 36.4529Z" fill="black"/>
<path d="M53.741 40.8356C53.7294 40.8357 53.7178 40.8361 53.7062 40.8364H51.8608C49.8777 40.7814 48.2257 42.3445 48.1707 44.3275C48.1704 44.3391 48.1702 44.3508 48.1699 44.3624V44.8896C48.1699 45.2521 48.5324 45.4499 48.8949 45.4499H56.6719C57.0344 45.4499 57.3969 45.2521 57.3969 44.8896V44.3624C57.3612 42.3789 55.7244 40.7999 53.741 40.8356ZM49.554 44.1317C49.6199 43.1431 50.6415 42.1545 51.8607 42.1545H53.7061C54.9254 42.1545 55.947 43.143 56.0128 44.1317H49.554Z" fill="black"/>
<path d="M42.0751 51.8724C42.4391 51.8724 42.7342 51.5774 42.7342 51.2134C42.7321 48.1646 44.1139 45.2796 46.4909 43.3704C46.7516 43.1164 46.757 42.6992 46.503 42.4384C46.2821 42.2116 45.931 42.174 45.667 42.3489C42.9758 44.5036 41.4114 47.7658 41.416 51.2134C41.416 51.5774 41.7111 51.8724 42.0751 51.8724Z" fill="black"/>
<path d="M55.9978 60.7333C55.9927 60.7351 55.9875 60.737 55.9824 60.739C53.9186 61.4298 51.6861 61.4298 49.6223 60.739C49.2767 60.6313 48.9088 60.8226 48.7985 61.1674C48.6733 61.4897 48.8331 61.8525 49.1554 61.9777C49.1681 61.9826 49.1809 61.9872 49.1939 61.9912C51.5345 62.7823 54.0702 62.7823 56.4107 61.9912C56.76 61.8666 56.949 61.4887 56.8391 61.1344C56.7176 60.7914 56.341 60.6118 55.9978 60.7333Z" fill="black"/>
<path d="M58.5847 43.0113C61.2539 44.8905 62.8402 47.9523 62.8357 51.2167C62.8357 51.5807 63.1307 51.8758 63.4948 51.8758C63.8588 51.8758 64.1538 51.5807 64.1538 51.2167C64.1447 47.5239 62.3528 44.0628 59.3426 41.9238C59.0423 41.7145 58.6292 41.7882 58.4199 42.0885C58.2106 42.3888 58.2844 42.802 58.5847 43.0113Z" fill="black"/>
<path d="M42.898 58.5323C44.354 58.5323 45.5343 57.352 45.5343 55.8961C45.5343 54.4401 44.354 53.2598 42.898 53.2598C41.442 53.2598 40.2617 54.44 40.2617 55.8961C40.2617 57.3521 41.442 58.5323 42.898 58.5323ZM42.898 54.5779C43.626 54.5779 44.2162 55.168 44.2162 55.8961C44.2162 56.6241 43.626 57.2142 42.898 57.2142C42.17 57.2142 41.5799 56.6241 41.5799 55.8961C41.5799 55.168 42.17 54.5779 42.898 54.5779Z" fill="black"/>
<path d="M43.8563 58.9586C43.8447 58.9588 43.8331 58.9591 43.8214 58.9594H41.976C39.993 58.9045 38.3409 60.4675 38.286 62.4506C38.2857 62.4622 38.2854 62.4738 38.2852 62.4854V63.0127C38.2852 63.3752 38.6476 63.5729 39.0101 63.5729H46.7872C47.1497 63.5729 47.5122 63.3752 47.5122 63.0127V62.4854C47.4766 60.502 45.8398 58.923 43.8563 58.9586ZM39.6693 62.2547C39.7352 61.2661 40.7568 60.2775 41.976 60.2775H43.8214C45.0407 60.2775 46.0623 61.2661 46.1281 62.2547H39.6693Z" fill="black"/>
<path d="M60.0352 55.8961C60.0352 57.352 61.2155 58.5323 62.6714 58.5323C64.1274 58.5323 65.3077 57.352 65.3077 55.8961C65.3077 54.4401 64.1274 53.2598 62.6714 53.2598C61.2155 53.2598 60.0352 54.44 60.0352 55.8961ZM63.9896 55.8961C63.9896 56.6241 63.3995 57.2142 62.6714 57.2142C61.9434 57.2142 61.3533 56.6241 61.3533 55.8961C61.3533 55.168 61.9434 54.5779 62.6714 54.5779C63.3995 54.5779 63.9896 55.168 63.9896 55.8961Z" fill="black"/>
<path d="M63.6297 58.9586C63.618 58.9588 63.6064 58.9591 63.5948 58.9594H61.7494C59.7664 58.9045 58.1144 60.4675 58.0594 62.4506C58.0591 62.4622 58.0588 62.4738 58.0586 62.4854V63.0127C58.0586 63.3752 58.4211 63.5729 58.7836 63.5729H66.5606C66.9231 63.5729 67.2856 63.3752 67.2856 63.0127V62.4854C67.25 60.502 65.6132 58.923 63.6297 58.9586ZM59.4427 62.2547C59.5086 61.2661 60.5301 60.2775 61.7494 60.2775H63.5948C64.8141 60.2775 65.8356 61.2661 65.9015 62.2547H59.4427Z" fill="black"/>
</svg>
