<svg width="107" height="104" viewBox="0 0 107 104" fill="none" xmlns="http://www.w3.org/2000/svg">
<rect width="73.538" height="73.538" transform="matrix(0.718996 -0.695014 0.718996 0.695014 0.720703 51.9766)" fill="#F5F5F5"/>
<path d="M62.2445 62.7116C61.7399 62.7116 61.3308 62.3162 61.3308 61.8284C61.3308 58.3706 58.4206 55.5575 54.8435 55.5575H53.4729C49.8958 55.5575 46.9856 58.3706 46.9856 61.8284C46.9856 62.3162 46.5765 62.7116 46.0719 62.7116C45.5673 62.7116 45.1582 62.3162 45.1582 61.8284C45.1582 57.3966 48.8882 53.791 53.4729 53.791H54.8435C59.4282 53.791 63.1582 57.3966 63.1582 61.8284C63.1582 62.3162 62.7491 62.7116 62.2445 62.7116Z" fill="black"/>
<path d="M54.0679 52.0251C50.6671 52.0251 47.9004 49.3506 47.9004 46.0633C47.9004 42.776 50.6671 40.1016 54.0679 40.1016C57.4687 40.1016 60.2354 42.776 60.2354 46.0633C60.2354 49.3506 57.4687 52.0251 54.0679 52.0251ZM54.0679 41.868C51.6748 41.868 49.7278 43.75 49.7278 46.0633C49.7278 48.3766 51.6748 50.2586 54.0679 50.2586C56.461 50.2586 58.408 48.3766 58.408 46.0633C58.408 43.75 56.461 41.868 54.0679 41.868Z" fill="black"/>
</svg>
