<svg width="106" height="106" viewBox="0 0 106 106" fill="none" xmlns="http://www.w3.org/2000/svg">
<rect y="52.874" width="74.7745" height="74.7745" transform="rotate(-45 0 52.874)" fill="#F5F5F5"/>
<path d="M53 36C44.1635 36 37 43.1635 37 52C37 60.8365 44.1635 68 53 68C61.8365 68 69 60.8365 69 52C68.9901 43.1677 61.8323 36.0099 53 36ZM53 66.9333C44.7526 66.9333 38.0667 60.2474 38.0667 52C38.0667 43.7526 44.7526 37.0667 53 37.0667C61.2474 37.0667 67.9333 43.7526 67.9333 52C67.924 60.2435 61.2435 66.924 53 66.9333Z" fill="black"/>
<path d="M61.1403 50.3223H59.5124V48.6463C59.5124 48.3378 59.2694 48.0876 58.9698 48.0876H56.7992C56.4995 48.0876 56.2566 48.3378 56.2566 48.6463V50.3223H53.8027C53.01 48.0134 50.7167 46.6285 48.3723 47.0426C46.028 47.4567 44.3145 49.5495 44.3145 51.9983C44.3145 54.4471 46.028 56.5399 48.3723 56.954C50.7167 57.3681 53.01 55.9831 53.8027 53.6743H60.0551C60.2617 53.6754 60.4512 53.5556 60.5434 53.3652L61.6287 51.1306C61.7129 50.9571 61.7036 50.7509 61.604 50.5858C61.5044 50.4211 61.329 50.3212 61.1403 50.3223ZM59.7196 52.557H53.4011C53.1539 52.557 52.9376 52.7294 52.8759 52.976C52.3976 54.8827 50.6168 56.1258 48.7194 55.8779C46.8218 55.6296 45.3995 53.9675 45.3995 51.9983C45.3995 50.0291 46.8218 48.367 48.7194 48.1187C50.6168 47.8708 52.3976 49.1139 52.8759 51.0206C52.9376 51.2672 53.1539 51.4396 53.4011 51.4396H56.7992C57.0989 51.4396 57.3418 51.1895 57.3418 50.881V49.205H58.4271V50.881C58.4271 51.1895 58.6701 51.4396 58.9698 51.4396H60.2623L59.7196 52.557Z" fill="black"/>
<path d="M49.3402 50.6289C48.5828 50.6289 47.9688 51.243 47.9688 52.0003C47.9688 52.7577 48.5828 53.3718 49.3402 53.3718C50.0975 53.3718 50.7116 52.7577 50.7116 52.0003C50.7116 51.243 50.0975 50.6289 49.3402 50.6289ZM49.3402 52.4575C49.0877 52.4575 48.883 52.2528 48.883 52.0003C48.883 51.7479 49.0877 51.5432 49.3402 51.5432C49.5926 51.5432 49.7973 51.7479 49.7973 52.0003C49.7973 52.2528 49.5926 52.4575 49.3402 52.4575Z" fill="black"/>
</svg>
