<svg width="106" height="106" viewBox="0 0 106 106" fill="none" xmlns="http://www.w3.org/2000/svg">
<rect x="0.0292969" y="52.874" width="74.7745" height="74.7745" transform="rotate(-45 0.0292969 52.874)" fill="#F5F5F5"/>
<path d="M53.6796 64.0659C53.6796 64.3764 53.4266 64.6294 53.1155 64.6294C52.8049 64.6294 52.5519 64.3764 52.5519 64.0659C52.5519 63.7553 52.8049 63.5023 53.1155 63.5023C53.4266 63.5023 53.6796 63.7553 53.6796 64.0659ZM41.2754 64.0659V63.3529C41.2754 59.5955 43.8239 57.5465 44.9397 56.8775C46.4552 55.9696 48.0831 55.2832 49.7853 54.8321V53.9247C49.5015 53.6742 49.242 53.3893 49.0128 53.0718C48.3377 52.1369 47.7868 51.1233 47.3715 50.053C46.9915 50.0011 46.6441 49.7593 46.4654 49.381C46.2951 49.0204 45.1133 46.8343 44.9322 46.4452C44.4732 45.4589 45.0731 44.4845 45.8337 44.1708C45.9603 44.1186 46.0905 44.08 46.2229 44.0579C46.0998 43.5542 46.0376 43.0361 46.0376 42.5093C46.0376 38.92 48.9576 36 52.5468 36C53.1776 36 53.775 36.2413 54.2289 36.6793C54.2337 36.684 54.2413 36.684 54.2462 36.6793C54.7002 36.2413 55.2975 36 55.9282 36C58.3677 36 60.3523 37.9846 60.3523 40.424V41.4504C60.3523 42.3341 60.2309 43.204 59.9915 44.0472C60.1268 44.0692 60.2619 44.1045 60.39 44.1625C61.3258 44.5862 61.6912 45.6334 61.2914 46.4369C61.1003 46.821 59.9286 49.0119 59.7582 49.3726C59.5796 49.7507 59.2323 49.9926 58.8526 50.0447C58.4371 51.1175 57.8853 52.1335 57.2089 53.0705C56.9794 53.3884 56.7196 53.6737 56.4355 53.9244V54.8321C58.1377 55.2831 59.7656 55.9695 61.2811 56.8774C62.3969 57.5464 64.9454 59.5954 64.9454 63.3529V64.0659C64.9454 64.3771 64.6931 64.6294 64.3818 64.6294H55.6527C55.3297 64.6294 55.0677 64.3563 55.0892 64.0282C55.1088 63.7286 55.3712 63.5023 55.6713 63.5023H63.8183C63.8183 61.1225 62.624 58.9965 60.7011 57.8446C59.3437 57.0311 57.8899 56.406 56.3709 55.9822C56.0672 57.5046 54.7209 58.6556 53.1104 58.6556C51.5 58.6556 50.1536 57.5046 49.8498 55.9822C48.3312 56.406 46.8771 57.0311 45.5196 57.8446C43.5967 58.9965 42.4025 61.0571 42.4025 63.5023H50.58C50.9034 63.5023 51.1639 63.7769 51.1417 64.105C51.1213 64.404 50.8591 64.6294 50.5595 64.6294H41.839C41.5277 64.6294 41.2754 64.3771 41.2754 64.0659ZM47.1667 42.5956C47.2188 42.5345 47.9964 41.5794 49.3349 41.5794C50.0025 41.5794 50.6437 41.812 51.1515 42.2268C51.6192 42.6088 52.2148 42.8192 52.8286 42.8192C54.2811 42.8192 55.4446 41.651 55.4775 40.1597C55.4843 39.8534 55.7344 39.6085 56.0408 39.6085C56.3472 39.6084 56.5975 39.8531 56.6044 40.1594C56.6206 40.8791 57.0079 41.5032 57.6154 41.788C58.2129 42.0683 58.7128 42.4925 59.0795 43.0115C59.1764 42.499 59.2252 41.9775 59.2252 41.4504V40.424C59.2252 38.6061 57.7462 37.1271 55.9283 37.1271C55.5911 37.1271 55.2717 37.2561 55.029 37.4904C54.5852 37.9188 53.8899 37.9187 53.4461 37.4904C53.2034 37.2561 52.8841 37.1271 52.5468 37.1271C49.5791 37.1271 47.1383 39.5105 47.1667 42.5956ZM55.3083 54.6752C53.974 55.3051 52.4323 55.3778 50.9125 54.6755V55.3305C50.9125 56.5425 51.8984 57.5284 53.1104 57.5284C54.3224 57.5284 55.3083 56.5425 55.3083 55.3305V54.6752ZM56.295 52.4107C56.9941 51.4424 57.5483 50.3823 57.9409 49.2593C58.0099 49.0622 58.2716 48.764 58.7152 48.9385C58.9243 48.4931 60.1017 46.3161 60.2723 45.9554C60.4023 45.6807 60.2451 45.3229 59.9496 45.2C59.7827 45.1306 59.5981 45.1428 59.4359 45.2257C59.0861 45.4044 58.6534 45.1935 58.6088 44.8069C58.5074 43.9292 57.9385 43.1845 57.1368 42.8086C56.7316 42.6185 56.386 42.3398 56.1168 41.9987C55.9472 42.3038 55.7271 42.5783 55.4853 42.8388C54.4157 43.9918 52.1795 44.5045 50.4384 43.0998C49.7592 42.5518 48.7491 42.5848 48.1258 43.217C47.7868 43.561 47.5874 44.0253 47.5874 44.4996V44.7215C47.5892 45.1354 47.1493 45.4118 46.771 45.2252C46.6143 45.1479 46.4352 45.1445 46.274 45.2085C46.0185 45.31 45.8003 45.6408 45.9513 45.9639C46.1204 46.3255 47.3238 48.5351 47.502 48.9386C47.9982 48.7659 48.2312 49.1204 48.2827 49.2674C48.6758 50.3877 49.2288 51.4457 49.9266 52.4121C50.677 53.4513 51.8375 54.0474 53.1102 54.0473C54.3835 54.047 55.5443 53.4506 56.295 52.4107Z" fill="black"/>
</svg>
