<svg width="42" height="39" viewBox="0 0 42 39" fill="none" xmlns="http://www.w3.org/2000/svg">
<g clip-path="url(#clip0)">
<path d="M29.7489 14.627H12.25C11.767 14.627 11.375 14.991 11.375 15.4394V28.4386C11.375 30.4015 12.8799 32.041 14.8748 32.4196V36.5631C14.8748 37.9069 16.0524 39.0004 17.4996 39.0004C18.9468 39.0004 20.1244 37.9069 20.1244 36.5631V32.5009H21.8743V36.5631C21.8743 37.9069 23.052 39.0004 24.4991 39.0004C25.9463 39.0004 27.124 37.9069 27.124 36.5631V32.4196C29.1188 32.0426 30.6238 30.4015 30.6238 28.4386V15.4394C30.6238 14.9894 30.2318 14.627 29.7489 14.627Z" fill="#B01D1E"/>
<path d="M25.5788 4.32974L27.0539 1.13356C27.2446 0.720809 27.0382 0.244766 26.5937 0.067602C26.1544 -0.111161 25.6347 0.0806265 25.4457 0.494974L23.9706 3.69276C23.0344 3.41003 22.037 3.25244 21.001 3.25244C19.9651 3.25244 18.9676 3.41003 18.0314 3.69276L16.5529 0.494974C16.3639 0.0806265 15.8442 -0.112761 15.4049 0.067602C14.9604 0.24469 14.7557 0.722408 14.9465 1.13356L16.4216 4.32974C13.4171 5.84417 11.375 8.79982 11.375 12.1893C11.375 12.6378 11.767 13.0018 12.25 13.0018H29.7488C30.2318 13.0018 30.6238 12.6378 30.6238 12.1893C30.6237 8.79982 28.5816 5.84417 25.5788 4.32974ZM17.4995 9.75198C17.0166 9.75198 16.6246 9.38798 16.6246 8.93951C16.6246 8.49104 17.0166 8.12704 17.4995 8.12704C17.9825 8.12704 18.3745 8.49104 18.3745 8.93951C18.3745 9.38798 17.9825 9.75198 17.4995 9.75198ZM24.4991 9.75198C24.0162 9.75198 23.6242 9.38798 23.6242 8.93951C23.6242 8.49104 24.0162 8.12704 24.4991 8.12704C24.9821 8.12704 25.3741 8.49104 25.3741 8.93951C25.3741 9.38798 24.9821 9.75198 24.4991 9.75198Z" fill="#B01D1E"/>
<path d="M34.9998 14.627C33.5526 14.627 32.375 15.7205 32.375 17.0643V25.1888C32.375 26.5326 33.5526 27.6261 34.9998 27.6261C36.447 27.6261 37.6246 26.5326 37.6246 25.1888V17.0643C37.6246 15.7206 36.447 14.627 34.9998 14.627Z" fill="#B01D1E"/>
<path d="M7.00178 14.627C5.5546 14.627 4.37695 15.7205 4.37695 17.0643V25.1888C4.37695 26.5326 5.5546 27.6261 7.00178 27.6261C8.44896 27.6261 9.6266 26.5326 9.6266 25.1888V17.0643C9.6266 15.7206 8.44896 14.627 7.00178 14.627Z" fill="#B01D1E"/>
</g>
<defs>
<clipPath id="clip0">
<rect width="42" height="39" fill="white"/>
</clipPath>
</defs>
</svg>
