<svg width="12" height="15" viewBox="0 0 12 15" fill="none" xmlns="http://www.w3.org/2000/svg">
<path d="M3.97851 14.6785C1.80111 14.666 0 10.2211 0 7.95749C0 4.25984 2.77387 3.45032 3.8429 3.45032C4.32466 3.45032 4.83909 3.63951 5.29282 3.80693C5.61012 3.92371 5.93827 4.04427 6.12077 4.04427C6.23001 4.04427 6.48744 3.94172 6.71472 3.85173C7.19943 3.65877 7.80258 3.41895 8.50494 3.41895C8.5062 3.41895 8.50788 3.41895 8.50911 3.41895C9.03357 3.41895 10.6237 3.53404 11.5798 4.96974L11.8037 5.30626L11.4814 5.54946C11.021 5.89687 10.1809 6.53059 10.1809 7.7859C10.1809 9.27266 11.1323 9.84443 11.5894 10.1194C11.7911 10.2408 12 10.366 12 10.6397C12 10.8185 10.5735 14.6563 8.502 14.6563C7.99511 14.6563 7.63682 14.504 7.32078 14.3696C7.00101 14.2336 6.72515 14.1164 6.26933 14.1164C6.03828 14.1164 5.7461 14.2256 5.43678 14.3416C5.01408 14.4993 4.53563 14.6785 3.99274 14.6785H3.97851Z" fill="#B01D1E"/>
<path d="M8.7251 0C8.77905 1.94524 7.3879 3.29475 5.99838 3.21012C5.76942 1.65775 7.38773 0 8.7251 0Z" fill="#B01D1E"/>
</svg>
