<svg width="12" height="16" viewBox="0 0 12 16" fill="none" xmlns="http://www.w3.org/2000/svg">
<path d="M10.5 5.90625H10V3.9375C10 1.76591 8.20605 0 6 0C3.79395 0 2 1.76591 2 3.9375V5.90625H1.5C0.67334 5.90625 0 6.56835 0 7.38281V14.2734C0 15.0879 0.67334 15.75 1.5 15.75H10.5C11.3267 15.75 12 15.0879 12 14.2734V7.38281C12 6.56835 11.3267 5.90625 10.5 5.90625ZM3.33337 3.9375C3.33337 2.48978 4.5293 1.31254 6 1.31254C7.4707 1.31254 8.66663 2.48978 8.66663 3.9375V5.90625H3.33337V3.9375Z" fill="#CCCCCC"/>
</svg>
