<svg width="17" height="18" viewBox="0 0 17 18" fill="none" xmlns="http://www.w3.org/2000/svg">
<path d="M16.2143 1.14286H14.2143V0.285714C14.2143 0.127714 14.0866 0 13.9286 0H11.9286C11.7706 0 11.6429 0.127714 11.6429 0.285714V1.14286H5.35714V0.285714C5.35714 0.127714 5.22943 0 5.07143 0H3.07143C2.91343 0 2.78571 0.127714 2.78571 0.285714V1.14286H0.785714C0.627714 1.14286 0.5 1.27057 0.5 1.42857V4.57143V16.8571C0.5 17.0151 0.627714 17.1429 0.785714 17.1429H16.2143C16.3723 17.1429 16.5 17.0151 16.5 16.8571V4.57143V1.42857C16.5 1.27057 16.3723 1.14286 16.2143 1.14286ZM12.2143 0.571429H13.6429V1.42857V2.28571H12.2143V1.42857V0.571429ZM3.35714 0.571429H4.78571V1.42857V2.28571H3.35714V1.42857V0.571429ZM1.07143 1.71429H2.78571V2.57143C2.78571 2.72943 2.91343 2.85714 3.07143 2.85714H5.07143C5.22943 2.85714 5.35714 2.72943 5.35714 2.57143V1.71429H11.6429V2.57143C11.6429 2.72943 11.7706 2.85714 11.9286 2.85714H13.9286C14.0866 2.85714 14.2143 2.72943 14.2143 2.57143V1.71429H15.9286V4.28571H1.07143V1.71429ZM1.07143 16.5714V4.85714H15.9286V16.5714H1.07143Z" fill="black"/>
<path d="M10.7866 6.57129H8.78655H8.21512H6.21512H5.64369H3.07227V9.14272V9.71415V11.7141V12.2856V14.857H5.64369H6.21512H8.21512H8.78655H10.7866H11.358H13.9294V12.2856V11.7141V9.71415V9.14272V6.57129H11.358H10.7866ZM8.78655 7.14272H10.7866V9.14272H8.78655V7.14272ZM10.7866 11.7141H8.78655V9.71415H10.7866V11.7141ZM6.21512 9.71415H8.21512V11.7141H6.21512V9.71415ZM6.21512 7.14272H8.21512V9.14272H6.21512V7.14272ZM3.64369 7.14272H5.64369V9.14272H3.64369V7.14272ZM3.64369 9.71415H5.64369V11.7141H3.64369V9.71415ZM5.64369 14.2856H3.64369V12.2856H5.64369V14.2856ZM8.21512 14.2856H6.21512V12.2856H8.21512V14.2856ZM10.7866 14.2856H8.78655V12.2856H10.7866V14.2856ZM13.358 14.2856H11.358V12.2856H13.358V14.2856ZM13.358 11.7141H11.358V9.71415H13.358V11.7141ZM13.358 7.14272V9.14272H11.358V7.14272H13.358Z" fill="black"/>
</svg>
