<svg width="17" height="17" viewBox="0 0 17 17" fill="none" xmlns="http://www.w3.org/2000/svg">
<path d="M8.52828 15.129H2.54807C2.18128 15.129 1.88362 14.8313 1.88362 14.4645V2.50416C1.88362 2.13737 2.18131 1.83971 2.54807 1.83971H8.52828C8.89572 1.83971 9.19273 1.5427 9.19273 1.17525C9.19273 0.80781 8.89572 0.510742 8.52828 0.510742H2.54807C1.44905 0.510742 0.554688 1.40513 0.554688 2.50416V14.4645C0.554688 15.5635 1.44905 16.4579 2.54807 16.4579H8.52828C8.89572 16.4579 9.19273 16.1609 9.19273 15.7934C9.19273 15.426 8.89572 15.129 8.52828 15.129Z" fill="#AAAAAA"/>
<path d="M16.3577 8.0111L12.3177 4.0243C12.0572 3.76649 11.636 3.76983 11.3782 4.03096C11.1204 4.29209 11.123 4.71269 11.3848 4.97051L14.2719 7.81972H6.53554C6.1681 7.81972 5.87109 8.11672 5.87109 8.48417C5.87109 8.85161 6.1681 9.14865 6.53554 9.14865H14.2719L11.3848 11.9979C11.123 12.2557 11.121 12.6763 11.3782 12.9374C11.5084 13.069 11.6798 13.1354 11.8513 13.1354C12.0201 13.1354 12.1888 13.0716 12.3177 12.944L16.3577 8.95724C16.4839 8.83233 16.5557 8.6622 16.5557 8.48414C16.5557 8.30614 16.4846 8.13669 16.3577 8.0111Z" fill="#AAAAAA"/>
</svg>
