<svg width="19" height="19" viewBox="0 0 19 19" fill="none" xmlns="http://www.w3.org/2000/svg">
<circle cx="9.5" cy="9.5" r="9" stroke="#B01D1E"/>
<path d="M15.2008 10.4504C14.568 12.9088 12.1568 15.2004 9.50078 15.2004C6.35276 15.2004 3.80078 12.6484 3.80078 9.50039C3.80078 6.35237 6.35276 3.80039 9.50078 3.80039C9.97578 3.80039 11.2108 3.99039 12.3508 4.75039L14.2508 1.90039" stroke="#B01D1E"/>
<rect x="8.55078" y="8.5498" width="8.55" height="1.9" rx="0.95" stroke="#B01D1E"/>
<circle cx="9.975" cy="16.6254" r="0.475" fill="#B01D1E"/>
<circle cx="14.725" cy="14.725" r="0.475" fill="#B01D1E"/>
<circle cx="9.975" cy="2.37539" r="0.475" fill="#B01D1E"/>
<circle cx="2.37539" cy="9.975" r="0.475" fill="#B01D1E"/>
<circle cx="4.27578" cy="14.725" r="0.475" fill="#B01D1E"/>
<circle cx="4.27578" cy="4.2748" r="0.475" fill="#B01D1E"/>
<path d="M12.115 8.36447C11.6762 7.35572 10.6706 6.65039 9.50039 6.65039C7.92638 6.65039 6.65039 7.92638 6.65039 9.50039C6.65039 11.0744 7.92638 12.3504 9.50039 12.3504C10.6706 12.3504 11.6762 11.6451 12.115 10.6363" stroke="#B01D1E"/>
</svg>
