<svg width="61" height="61" viewBox="0 0 61 61" fill="none" xmlns="http://www.w3.org/2000/svg">
<rect x="0.625" y="30.1836" width="42.2421" height="42.2421" transform="rotate(-45 0.625 30.1836)" fill="#F3F3F3"/>
<path d="M35.3778 22.6309H25.8968C24.3835 22.6309 23.1523 23.8621 23.1523 25.3753V34.8563C23.1523 36.3696 24.3835 37.6011 25.8968 37.6011H35.3778C36.8911 37.6011 38.1226 36.37 38.1226 34.8563V25.3753C38.1226 23.8621 36.8914 22.6309 35.3778 22.6309ZM30.6373 35.0441C27.9201 35.0441 25.7094 32.8334 25.7094 30.1158C25.7094 27.3986 27.9201 25.1879 30.6373 25.1879C33.3549 25.1879 35.5656 27.3986 35.5656 30.1158C35.5656 32.833 33.3545 35.0441 30.6373 35.0441ZM35.724 26.2068C35.0808 26.2068 34.5577 25.6837 34.5577 25.0408C34.5577 24.3979 35.0808 23.8748 35.724 23.8748C36.3669 23.8748 36.89 24.3979 36.89 25.0408C36.89 25.6837 36.3669 26.2068 35.724 26.2068Z" fill="black"/>
<path d="M30.6349 27.2715C29.0663 27.2715 27.7891 28.548 27.7891 30.1166C27.7891 31.6859 29.0663 32.9628 30.6349 32.9628C32.2042 32.9628 33.4804 31.6859 33.4804 30.1166C33.4804 28.5484 32.2038 27.2715 30.6349 27.2715Z" fill="black"/>
</svg>
