<svg width="39" height="39" viewBox="0 0 39 39" fill="none" xmlns="http://www.w3.org/2000/svg">
<path d="M14.1115 38.9993C8.30713 38.9659 3.50586 27.1172 3.50586 21.0829C3.50586 11.226 10.9002 9.06801 13.75 9.06801C15.0342 9.06801 16.4056 9.57235 17.6151 10.0186C18.4609 10.33 19.3357 10.6513 19.8222 10.6513C20.1134 10.6513 20.7996 10.3779 21.4055 10.1381C22.6976 9.62369 24.3054 8.98438 26.1777 8.98438C26.1811 8.98438 26.1856 8.98438 26.1889 8.98438C27.5869 8.98438 31.8259 9.29119 34.3744 13.1184L34.9713 14.0155L34.1122 14.6637C32.8848 15.5898 30.6454 17.2792 30.6454 20.6255C30.6454 24.5888 33.1816 26.113 34.4 26.8461C34.9379 27.1696 35.4946 27.5033 35.4946 28.233C35.4946 28.7095 31.692 38.9402 26.1699 38.9402C24.8187 38.9402 23.8636 38.534 23.0211 38.1759C22.1687 37.8132 21.4333 37.5008 20.2182 37.5008C19.6023 37.5008 18.8234 37.792 17.9989 38.1011C16.872 38.5217 15.5966 38.9993 14.1494 38.9993H14.1115Z" fill="#B01D1E"/>
<path d="M26.7624 0C26.9062 5.18548 23.1978 8.78292 19.4937 8.5573C18.8833 4.41911 23.1973 0 26.7624 0Z" fill="#B01D1E"/>
</svg>
