<svg width="94" height="94" viewBox="0 0 94 94" fill="none" xmlns="http://www.w3.org/2000/svg">
<rect x="0.515625" y="47.1758" width="66.0095" height="66.0095" transform="rotate(-45 0.515625 47.1758)" fill="#F8F8F8"/>
<rect x="44.6055" y="39.4785" width="7.37128" height="2.15292" stroke="black"/>
<rect x="40.4219" y="55.1133" width="16.1966" height="3.33839" fill="white" stroke="black"/>
<path d="M51.2543 41.8418V44.2497C51.2543 47.2583 52.1944 50.1918 53.9433 52.6399V52.6399H43.3242V52.6399C45.0303 49.4682 45.766 45.8648 45.4398 42.2781L45.4001 41.8418" stroke="black"/>
<path d="M54.9844 54.5707C55.1523 54.8312 55.3345 55.0737 55.5197 55.2926H41.715C41.9086 55.0346 42.0821 54.7469 42.2355 54.4545C42.5811 53.7961 42.8477 53.0688 43.0184 52.4961H54.1731C54.2766 53.2655 54.6039 53.9802 54.9844 54.5707Z" stroke="black"/>
<path d="M45.1743 39.1584L44.5156 32.8984H51.9917L51.3888 39.1584" stroke="black"/>
<path d="M44.457 35.5586H51.9124" stroke="black"/>
<path d="M49.1229 32.4879V31.4908H50.2028V29.9154H49.1229V28.7188H47.5019V29.9154H46.3828V31.4908H47.5019V32.4879" stroke="black" stroke-width="0.75"/>
</svg>
