<svg width="94" height="94" viewBox="0 0 94 94" fill="none" xmlns="http://www.w3.org/2000/svg">
<rect x="0.515625" y="47.1758" width="66.0095" height="66.0095" transform="rotate(-45 0.515625 47.1758)" fill="#F8F8F8"/>
<path d="M55.9936 54.0298H55.5797V52.6268C55.5797 52.338 55.3528 52.0904 55.0591 52.0904H54.2449C50.1868 49.5046 49.853 43.7002 49.8397 41.5132H50.3203C50.6006 41.5132 50.8409 41.2794 50.8409 40.9768V39.5876H51.3481C51.6285 39.5876 51.8687 39.3538 51.8687 39.0512V37.6482H52.1891C52.4294 37.6482 52.643 37.4694 52.6964 37.2356L54.0847 32.1465C54.1247 31.9952 54.0847 31.8301 53.9779 31.7063C53.8844 31.5688 53.7376 31.5 53.5774 31.5H50.694C50.4537 31.5 50.2402 31.6651 50.1868 31.9126L49.7062 33.0446H48.7451V32.0364C48.7451 31.7338 48.5181 31.5 48.2245 31.5H45.5146C45.2343 31.5 45.0074 31.7338 45.0074 32.0364V33.0446H44.0329L43.5523 31.9126C43.4989 31.6651 43.2987 31.5 43.0584 31.5H40.1751C40.0149 31.5 39.868 31.5688 39.7746 31.6926C39.6811 31.8164 39.6411 31.9814 39.6678 32.1327L41.0561 37.2219C41.1095 37.4694 41.3231 37.6345 41.5633 37.6345H41.8837V39.0374C41.8837 39.3263 42.1106 39.5739 42.4043 39.5739H42.9116V40.9906C42.9116 41.2794 43.1385 41.527 43.4322 41.527H43.9128C43.8994 43.714 43.5523 49.5183 39.5076 52.1042H38.68C38.3996 52.1042 38.1594 52.338 38.1594 52.6406V54.0436H37.7589C37.4652 54.0298 37.2383 54.2774 37.2383 54.5662V57.9636C37.2383 58.2524 37.4652 58.5 37.7589 58.5H56.0069C56.2872 58.5 56.5275 58.2662 56.5275 57.9636V54.5662C56.5142 54.2774 56.2739 54.0298 55.9936 54.0298ZM42.391 36.5891H41.9772L40.8158 32.5591H42.658L43.1385 33.691C43.1919 33.9249 43.4055 34.1037 43.6458 34.1037H45.5146C45.795 34.1037 46.0352 33.8698 46.0352 33.5672V32.5591H47.7172V33.5672C47.7172 33.8561 47.9441 34.1037 48.2378 34.1037H50.1334C50.3737 34.1037 50.5872 33.9386 50.6406 33.691L51.1212 32.5591H52.9633L51.7753 36.5891H51.3481H42.391ZM43.4188 38.5285H42.9116V37.6482H50.8409V38.5148H50.3203H43.4188V38.5285ZM49.813 39.5876V40.4679H49.3324H44.42H43.9395V39.5876H49.813ZM44.9273 41.5132H48.8118C48.8252 43.6452 49.0922 48.5555 52.5896 52.0904H41.1495C44.647 48.5555 44.9273 43.6452 44.9273 41.5132ZM39.2006 53.1633H39.6411H54.098H54.5519V54.0298H39.2006V53.1633ZM55.4863 57.4272H38.2662V55.0889H38.68H55.0591H55.473V57.4272H55.4863Z" fill="black"/>
</svg>
