<svg width="15" height="15" viewBox="0 0 15 15" fill="none" xmlns="http://www.w3.org/2000/svg">
<circle cx="7.67578" cy="7.34766" r="6.625" stroke="#2E2E2E" stroke-width="0.75"/>
<path d="M10.5685 7.34766C10.5685 9.23849 10.2101 10.932 9.64689 12.1388C9.06951 13.3761 8.34665 13.9727 7.67682 13.9727C7.007 13.9727 6.28414 13.3761 5.70676 12.1388C5.14359 10.932 4.78516 9.23849 4.78516 7.34766C4.78516 5.45682 5.14359 3.76329 5.70676 2.55649C6.28414 1.31925 7.007 0.722656 7.67682 0.722656C8.34665 0.722656 9.06951 1.31925 9.64689 2.55649C10.2101 3.76329 10.5685 5.45682 10.5685 7.34766Z" stroke="#2E2E2E" stroke-width="0.75"/>
<path d="M1.5 5.28906H13.8529" stroke="#2E2E2E" stroke-width="0.75"/>
<path d="M1.5 10.2305H13.8529" stroke="#2E2E2E" stroke-width="0.75"/>
</svg>
