<svg width="11" height="13" viewBox="0 0 11 13" fill="none" xmlns="http://www.w3.org/2000/svg">
<path d="M9.73152 12.7446C9.46406 12.7446 9.24725 12.5278 9.24725 12.2603C9.24725 10.3644 7.70485 8.82204 5.80898 8.82204H5.08258C3.18671 8.82204 1.64431 10.3644 1.64431 12.2603C1.64431 12.5278 1.4275 12.7446 1.16005 12.7446C0.892586 12.7446 0.675781 12.5278 0.675781 12.2603C0.675781 9.8304 2.65267 7.85352 5.08258 7.85352H5.80898C8.23889 7.85352 10.2158 9.8304 10.2158 12.2603C10.2158 12.5278 9.99898 12.7446 9.73152 12.7446Z" fill="#B01D1E"/>
<path d="M5.39769 6.88522C3.59528 6.88522 2.12891 5.41884 2.12891 3.61644C2.12891 1.81403 3.59528 0.347656 5.39769 0.347656C7.20009 0.347656 8.66647 1.81403 8.66647 3.61644C8.66647 5.41884 7.20009 6.88522 5.39769 6.88522ZM5.39769 1.31618C4.12933 1.31618 3.09743 2.34808 3.09743 3.61644C3.09743 4.8848 4.12933 5.91669 5.39769 5.91669C6.66605 5.91669 7.69794 4.8848 7.69794 3.61644C7.69794 2.34808 6.66605 1.31618 5.39769 1.31618Z" fill="#B01D1E"/>
</svg>
