<svg width="133" height="22" viewBox="0 0 133 22" fill="none" xmlns="http://www.w3.org/2000/svg">
<path d="M40.5392 14.1177C40.1741 15.4765 39.0226 16.6357 37.3376 16.6357C35.821 16.6357 34.9925 15.7756 34.9925 12.3477C34.9925 8.93214 35.7789 8.05957 37.3376 8.05957C38.9384 8.05957 39.7529 8.88228 40.5392 10.5651H40.7779L40.9745 8.60804C40.0899 7.97231 38.7839 7.84766 37.3376 7.84766C34.3325 7.84766 32.4648 9.86705 32.4648 12.3477C32.4648 14.8283 34.3325 16.8477 37.3376 16.8477C38.8401 16.8477 39.9354 16.6856 40.9745 16.0748L40.7779 14.1177H40.5392Z" fill="black"/>
<path d="M50.4886 8.17176V7.95984H47.5678V8.17176C47.961 8.28394 47.9048 8.78256 47.9048 9.74239V12.41H44.5065V9.74239C44.5065 8.78256 44.4504 8.28394 44.8436 8.17176V7.95984H41.9087V8.17176C42.5827 8.28394 42.5406 8.78256 42.5406 9.74239V15.0402C42.5406 16.0623 42.6529 16.349 41.9087 16.5236V16.7355H44.8436V16.5236C44.4504 16.3989 44.5065 16.0623 44.5065 15.0402V12.6593H47.9048V15.0402C47.9048 16.0623 47.9469 16.3989 47.5678 16.5236V16.7355H50.4886V16.5236C49.7584 16.349 49.8707 16.0623 49.8707 15.0402V9.74239C49.8707 8.78256 49.8286 8.28394 50.4886 8.17176Z" fill="black"/>
<path d="M59.3522 15.6136C59.3522 15.6136 59.2258 15.2895 55.7854 7.95984H55.5467L53.1174 13.6441C51.7412 16.5983 51.3902 16.4986 51.0251 16.5236V16.7355H54.4795V16.5236C52.2608 16.6233 53.1314 14.2798 53.1314 14.2798H56.4595L56.8807 15.1898C56.8807 15.1898 57.6109 16.5236 56.5156 16.5236V16.7355H60.5318V16.5236C60.1667 16.4986 59.8296 16.6108 59.3522 15.6136ZM53.1735 14.0679L54.7042 10.428L56.3752 14.0679H53.1735Z" fill="black"/>
<path d="M65.5866 7.84766C62.4973 7.84766 60.742 9.94184 60.742 12.41C60.742 14.8906 62.4973 16.8477 65.5866 16.8477C68.6759 16.8477 70.4312 14.8906 70.4312 12.41C70.4312 9.94184 68.6759 7.84766 65.5866 7.84766ZM65.5866 16.6357C63.9155 16.6357 63.1432 15.838 63.1432 12.41C63.1432 8.99447 63.9155 8.05957 65.5866 8.05957C67.2436 8.05957 68.0019 8.99447 68.0019 12.41C68.0019 15.838 67.2436 16.6357 65.5866 16.6357Z" fill="black"/>
<path d="M76.9099 12.036L74.7474 10.7646C72.9219 9.705 73.4695 8.05957 74.9861 8.05957C77.2329 8.05957 78.0895 9.87951 78.3563 10.5402H78.595V8.44599C78.595 8.44599 77.3874 7.84766 74.9861 7.84766C72.7674 7.84766 72.0793 8.79503 72.0793 8.79503C70.9138 10.1538 71.6581 11.4003 73.6521 12.5097L75.8146 13.7188C77.5278 14.8283 77.0644 16.6357 75.5619 16.6357C73.0623 16.6357 72.2619 14.4418 71.953 13.6815H71.7142V16.0748C71.7142 16.0748 72.8376 16.8477 75.5619 16.8477C77.8227 16.8477 78.4827 15.8255 78.4827 15.8255C79.5359 14.4668 78.7635 13.1205 76.9099 12.036Z" fill="black"/>
<path d="M17.9803 16.3168C22.7517 10.2871 18.8065 3.4553 16.1216 1.0415C18.8387 8.23627 14.845 14.2887 12.5085 16.3168L17.9803 16.3168Z" fill="#B01D1E"/>
<path d="M13.0544 5.8668C5.81879 4.58135 3.02931 11.4373 2.53901 15.2234C6.76839 8.88542 13.4594 9.5352 16.2762 10.6523L13.0544 5.8668Z" fill="black"/>
<path d="M21.7683 19.5739C13.9124 19.5372 9.04246 13.7746 9.08095 10.0789L4.56133 11.2751L4.73201 12.4679C7.87715 22.1958 18.1852 21.2001 21.7683 19.5739Z" fill="black"/>
<path d="M83.4648 7.84766V10.3532H83.7036C83.8159 8.12189 86.7929 8.05957 86.7929 8.05957H87.0597V15.115C87.0597 15.9626 86.4559 16.4114 85.8661 16.4114V16.6233H90.2894V16.4114C89.6997 16.4114 89.0958 15.9626 89.0958 15.115V8.05957H89.3626C89.3626 8.05957 92.3537 8.12189 92.466 10.3532H92.7047V7.84766H83.4648Z" fill="black"/>
<path d="M101.485 15.1898C100.797 12.946 99.6732 12.3975 98.7604 12.4848C100.431 12.3103 101.499 11.7493 101.499 10.2285C101.499 8.14683 99.5328 7.84766 96.7383 7.84766H93.2558V8.05957C93.8737 8.05957 94.2668 8.39613 94.2668 9.16899V15.115C94.2668 15.9626 93.8596 16.4114 93.2558 16.4114V16.6233H97.3421V16.4114C96.7524 16.4114 96.303 15.9626 96.303 15.115V12.6219H96.963C96.963 12.6219 98.2549 12.6219 98.7183 13.9058C99.7013 16.6108 99.3362 16.6108 101.836 16.6233H103.128V16.4114C102.762 16.3864 101.765 16.1371 101.485 15.1898ZM96.7383 12.41H96.303V8.05957H96.7383C98.1004 8.05957 99.2098 8.05957 99.2098 10.2285C99.2098 12.3975 98.1004 12.41 96.7383 12.41Z" fill="black"/>
<path d="M111.785 15.5014C111.785 15.5014 111.659 15.1773 108.219 7.84766H107.98L105.55 13.5319C104.174 16.4862 103.823 16.3864 103.458 16.4114V16.6233H106.913V16.4114C104.694 16.5111 105.565 14.1676 105.565 14.1676H108.893L109.314 15.0776C109.314 15.0776 110.044 16.4114 108.949 16.4114V16.6233H112.965V16.4114C112.6 16.3864 112.263 16.4986 111.785 15.5014ZM105.607 13.9557L107.137 10.3158L108.808 13.9557H105.607Z" fill="black"/>
<path d="M117.388 7.84766H113.681V8.05957C114.299 8.05957 114.734 8.79502 114.734 9.56788V14.9155C114.734 15.7632 114.285 16.4114 113.681 16.4114V16.6233H117.388C120.183 16.6233 123.272 15.9128 123.272 12.2729C123.272 8.62051 120.183 7.84766 117.388 7.84766ZM117.388 16.4114H116.77V8.05957H117.388C118.764 8.05957 120.815 8.38367 120.815 12.2729C120.815 16.1496 118.764 16.4114 117.388 16.4114Z" fill="black"/>
<path d="M131.986 13.9058C131.397 16.4114 127.675 16.4114 127.675 16.4114H127.17V12.2978H127.675C127.675 12.2978 129.81 12.2978 129.95 13.5942H130.189V10.7895H129.95C129.81 12.0859 127.675 12.0859 127.675 12.0859H127.17V8.05957H127.675C127.675 8.05957 131.481 8.05957 131.804 10.2161H132.043V7.84766H124.319V8.05957C124.937 8.05957 125.134 8.79502 125.134 9.56788V14.9155C125.134 15.7632 124.909 16.4114 124.319 16.4114V16.6233H132.225V13.9058H131.986Z" fill="black"/>
</svg>
