<svg width="18" height="18" viewBox="0 0 18 18" fill="none" xmlns="http://www.w3.org/2000/svg">
<path d="M17.8493 0.873742L16.792 0.0763245C16.7262 0.0268595 16.6462 0 16.564 0L14.7058 7.03128e-05C14.6054 7.03128e-05 14.509 0.040008 14.4381 0.111024L8.15361 6.39544C7.46729 6.1312 6.74447 5.99733 6.00127 5.99733C2.69214 5.99747 0 8.68964 0 11.9987C0 15.3078 2.69217 18.0001 6.00134 18.0001C9.31036 18.0001 12.0025 15.3079 12.0026 11.9987C12.0026 11.168 11.837 10.3673 11.5101 9.61475L12.451 8.67955L13.9534 8.66876C14.0529 8.66798 14.1481 8.62826 14.2184 8.55791L14.9639 7.81245C15.0359 7.74052 15.0759 7.64268 15.0748 7.54091L15.0576 5.79926L17.0283 5.62326C17.1168 5.61542 17.1996 5.57668 17.2624 5.51389L17.8891 4.8873C17.9601 4.81632 18 4.71996 18 4.61951V1.17609C18 1.05722 17.9442 0.94525 17.8493 0.873742ZM16.8241 4.88118L14.6418 5.07602C14.4451 5.09363 14.2949 5.25943 14.2969 5.45697L14.3161 7.38935L13.7928 7.91254L12.291 7.92334C12.192 7.92411 12.0971 7.96359 12.0268 8.03345L10.7888 9.26399C10.747 9.30558 10.7153 9.35673 10.6965 9.41263C10.6649 9.50699 10.6717 9.60993 10.7154 9.69926C11.067 10.4186 11.2453 11.1922 11.2453 11.9986C11.2453 14.8902 8.89281 17.2427 6.00137 17.2427C3.10979 17.2427 0.757304 14.8902 0.757304 11.9985C0.757304 9.10709 3.10976 6.75467 6.0013 6.75453C6.72739 6.75453 7.43083 6.9005 8.09212 7.18839C8.23468 7.25044 8.4009 7.21894 8.51101 7.10894L14.8626 0.757339L16.4372 0.757269L17.2427 1.3647V4.46261H17.2427L16.8241 4.88118Z" fill="black"/>
<path d="M10.1248 11.6191C9.91572 11.6191 9.74616 11.7887 9.74616 11.9978L9.74609 12.0176C9.74609 12.2267 9.91565 12.3963 10.1247 12.3963C10.3338 12.3963 10.5034 12.2267 10.5034 12.0176L10.5034 11.9978C10.5034 11.7887 10.3339 11.6191 10.1248 11.6191Z" fill="black"/>
<path d="M10.0844 12.6985C9.88234 12.6444 9.67481 12.7646 9.62088 12.9666C9.61554 12.9866 9.61009 13.0065 9.6046 13.0259C9.379 13.82 8.88618 14.5282 8.21698 15.0199C8.04844 15.1438 8.01223 15.3807 8.13602 15.5492C8.21023 15.6502 8.32502 15.7037 8.44142 15.7037C8.51926 15.7037 8.59779 15.6797 8.66529 15.6301C9.46939 15.0392 10.0617 14.1879 10.3331 13.2324C10.3397 13.2091 10.3462 13.1855 10.3524 13.162C10.4064 12.9599 10.2864 12.7525 10.0844 12.6985Z" fill="black"/>
<path d="M11.6818 5.78222L11.676 5.78799C11.5267 5.93441 11.5244 6.17414 11.6709 6.32342C11.745 6.399 11.843 6.43687 11.9412 6.43687C12.0368 6.43687 12.1326 6.40087 12.2063 6.32855L12.2122 6.32278C12.3614 6.17636 12.3637 5.93663 12.2173 5.78735C12.0709 5.63801 11.8311 5.63572 11.6818 5.78222Z" fill="black"/>
<path d="M15.2754 2.189L12.4254 5.03902C12.2775 5.18685 12.2775 5.42659 12.4254 5.57452C12.4993 5.64839 12.5962 5.68537 12.6931 5.68537C12.79 5.68537 12.8869 5.64839 12.9608 5.57452L15.8108 2.7245C15.9587 2.57667 15.9587 2.33694 15.8108 2.189C15.663 2.0412 15.4233 2.04113 15.2754 2.189Z" fill="black"/>
<path d="M4.11766 12.3789C3.71618 12.3789 3.3387 12.5352 3.05475 12.8192C2.46872 13.4053 2.46872 14.3589 3.05478 14.945C3.33867 15.2289 3.71614 15.3853 4.11763 15.3853C4.51915 15.3853 4.89655 15.2289 5.18055 14.945C5.76657 14.3589 5.76657 13.4053 5.18051 12.8191C4.89662 12.5352 4.51912 12.3789 4.11766 12.3789ZM4.64508 14.4095C4.50414 14.5504 4.31686 14.628 4.11759 14.628C3.91833 14.628 3.73105 14.5504 3.59014 14.4095C3.29936 14.1187 3.29936 13.6454 3.59014 13.3546C3.73105 13.2137 3.91833 13.1361 4.11759 13.1361C4.31686 13.1361 4.50414 13.2137 4.64505 13.3546C4.93586 13.6455 4.93586 14.1187 4.64508 14.4095Z" fill="black"/>
</svg>
