<svg width="22" height="16" viewBox="0 0 22 16" fill="none" xmlns="http://www.w3.org/2000/svg">
<path d="M21.9956 8.53437C21.9693 7.92509 21.3732 7.43853 20.2204 7.08787C19.3262 6.82048 18.1909 6.6583 16.9635 6.632V1.95497C16.9592 1.87607 16.9372 1.80155 16.8978 1.7358C16.7751 1.20542 16.1833 0.775852 15.1357 0.460251C14.1494 0.162184 12.8607 0 11.5063 0C10.1562 0 8.88065 0.162184 7.91193 0.460251C7.11855 0.705718 6.16736 1.16159 6.16736 1.9462C6.16736 1.99442 6.17175 2.04264 6.18051 2.09085L6.22873 4.08966C3.37956 3.54612 0.631201 5.41781 0.0920502 8.2626C0.0306834 8.58697 0 8.91134 0 9.24009C0 12.1331 2.35386 14.4869 5.24686 14.4869C6.45228 14.4869 7.61825 14.0749 8.5519 13.3122C9.37159 13.5051 10.3359 13.6103 11.3572 13.619C11.5808 14.8332 14.2108 15.3899 16.6611 15.3899C18.0112 15.3899 19.2867 15.2234 20.2554 14.9209C21.0488 14.6754 22 14.2152 22 13.4306V8.61765C22 8.59135 22 8.56067 21.9956 8.53437ZM16.0474 4.37896C16.0474 4.43594 15.837 4.73839 14.8858 5.0277C13.996 5.29508 12.7643 5.45288 11.5107 5.45288C10.428 5.45288 9.3672 5.33891 8.5256 5.12413C8.51245 5.11975 8.50369 5.11975 8.49054 5.11536C8.07412 4.78661 7.61387 4.52361 7.11855 4.33951L7.08787 3.10341C7.39032 3.25682 7.70592 3.37956 8.03467 3.46722C8.98585 3.74338 10.2176 3.89241 11.5107 3.89241C12.8607 3.89241 14.1538 3.73023 15.1401 3.43216C15.4688 3.33572 15.7888 3.20861 16.0913 3.05081V4.19924C16.043 4.26061 16.0474 4.31759 16.0474 4.37896ZM8.17494 1.30624C9.06037 1.03447 10.2439 0.881052 11.5063 0.881052C12.7599 0.881052 13.9916 1.03447 14.8815 1.30624C15.8326 1.59554 16.043 1.8936 16.043 1.95059C16.043 2.01195 15.8283 2.31441 14.8771 2.59932C13.9872 2.86671 12.7599 3.02012 11.5063 3.02012C10.2965 3.02012 9.14804 2.87986 8.27575 2.62562C7.33333 2.35386 7.07033 2.05579 7.04842 1.95935C7.04842 1.95059 7.04403 1.95059 7.04403 1.95059C7.04842 1.8673 7.25005 1.58677 8.17494 1.30624ZM8.18809 12.475C6.40406 14.0968 3.63818 13.9697 2.01634 12.1857C0.394501 10.4017 0.521618 7.63578 2.30564 6.01395C3.10779 5.28193 4.15979 4.87866 5.24686 4.87866C5.6852 4.87866 6.11915 4.94441 6.53995 5.07153C8.06097 5.54493 9.20502 6.80733 9.52939 8.36342C9.58637 8.65272 9.61705 8.95079 9.61705 9.24447C9.62144 10.4762 9.09982 11.6465 8.18809 12.475ZM9.30145 12.5714C9.65651 12.1375 9.94142 11.6509 10.1431 11.1293C10.5156 11.16 10.9014 11.1819 11.3046 11.1863V11.2652L11.3309 12.7511C10.6515 12.7424 9.97211 12.681 9.30145 12.5714ZM10.4718 8.72285C10.726 8.74039 10.9934 8.74915 11.2652 8.75354L11.2915 10.3052C10.9847 10.3009 10.6822 10.2877 10.3929 10.2658C10.4587 9.92827 10.4937 9.58199 10.4937 9.24009C10.4937 9.06914 10.485 8.89819 10.4718 8.72285ZM11.5501 7.88125C11.537 7.88125 11.5194 7.88125 11.5063 7.88125C11.0855 7.88125 10.6778 7.86372 10.3009 7.83742C10.1343 7.25005 9.87129 6.69775 9.51624 6.20681C10.1737 6.2901 10.8356 6.33393 11.5019 6.33393C12.8563 6.33393 14.1494 6.17175 15.1357 5.87368C15.4644 5.77725 15.78 5.65013 16.0825 5.49671V6.64515C14.202 6.69775 12.269 7.09225 11.5501 7.88125ZM12.1287 8.5782C12.1287 8.57382 12.1287 8.56944 12.1331 8.56067C12.1725 8.44232 12.4838 8.15302 13.3911 7.89879C14.2415 7.6577 15.3505 7.5262 16.5164 7.5262H16.591C17.8446 7.5262 19.0719 7.67085 19.9661 7.94262C20.8998 8.22315 21.1189 8.51245 21.1233 8.5782V8.58259C21.1189 8.64834 20.8998 8.95079 19.9267 9.24009C19.0281 9.50747 17.8446 9.65212 16.5953 9.65212C15.3855 9.65212 14.2371 9.51186 13.3648 9.26201C12.4224 8.99024 12.1638 8.68779 12.1375 8.59574C12.1287 8.5782 12.1287 8.5782 12.1287 8.5782ZM20.0012 14.0881C19.1158 14.3642 17.9279 14.5176 16.6655 14.5176C15.3987 14.5176 14.2152 14.3686 13.3385 14.1012C12.4136 13.8163 12.2208 13.5226 12.2208 13.4569C12.2208 13.4525 12.2208 13.4525 12.2208 13.4481L12.1988 12.1769C12.5495 12.3479 12.9133 12.4794 13.2903 12.5758C14.2108 12.8169 15.3812 12.9528 16.5822 12.9528C17.9366 12.9528 19.221 12.7906 20.2028 12.4925C20.5228 12.3961 20.8296 12.269 21.1233 12.1199V13.4349H21.1277C21.1277 13.4963 20.9261 13.7988 20.0012 14.0881ZM21.1321 10.8619H21.1277C21.1277 10.9058 21.1014 10.9584 21.1014 11.0066C21.1014 11.0679 20.8954 11.366 19.9486 11.6553C19.05 11.9271 17.8534 12.0761 16.5866 12.0761C14.1582 12.0761 12.5232 11.5282 12.1813 11.103L12.1769 10.7348L12.1594 9.72664C12.4662 9.88006 12.7862 10.0028 13.115 10.0948C14.0661 10.371 15.2979 10.52 16.591 10.52C17.9235 10.52 19.1947 10.3622 20.1721 10.0729C20.5053 9.98087 20.8253 9.85376 21.1321 9.69596V10.8619Z" fill="#B01D1E"/>
<path d="M7 7L4 11" stroke="#B01D1E" stroke-linecap="round" stroke-linejoin="round"/>
<path d="M7 7L4 11" stroke="#B01D1E" stroke-linecap="round" stroke-linejoin="round"/>
<path d="M4 7L7 11" stroke="#B01D1E" stroke-linecap="round" stroke-linejoin="round"/>
<path d="M4 7L7 11" stroke="#B01D1E" stroke-linecap="round" stroke-linejoin="round"/>
</svg>
