<svg width="16" height="21" viewBox="0 0 16 21" fill="none" xmlns="http://www.w3.org/2000/svg">
<path d="M15.6218 4.78875L11.2468 0.62207C11.1648 0.543945 11.0537 0.5 10.9375 0.5H1.74997C0.784834 0.5 0 1.24746 0 2.16668V18.8334C0 19.7525 0.784834 20.5 1.75001 20.5H14C14.9652 20.5 15.75 19.7525 15.75 18.8333V5.08332C15.75 4.97266 15.7039 4.86688 15.6218 4.78875ZM11.375 1.92254L14.2563 4.66668H12.25C11.7676 4.66668 11.375 4.29273 11.375 3.83336V1.92254ZM14.875 18.8333C14.875 19.2927 14.4824 19.6666 14 19.6666H1.75001C1.26767 19.6666 0.875027 19.2927 0.875027 18.8333V2.16668C0.875027 1.7073 1.26767 1.33336 1.75001 1.33336H10.5V3.83336C10.5 4.75254 11.2848 5.5 12.25 5.5H14.875V18.8333Z" fill="#B01D1E"/>
<path d="M10.1056 12.7322C9.70061 12.4286 9.31567 12.1166 9.05933 11.8724C8.72607 11.555 8.42912 11.2474 8.17109 10.9545C8.57358 9.76996 8.75003 9.15922 8.75003 8.83367C8.75003 7.45062 8.22536 7.16699 7.43753 7.16699C6.83895 7.16699 6.12503 7.4632 6.12503 8.87355C6.12503 9.49531 6.48264 10.2501 7.19143 11.1274C7.01798 11.6315 6.81417 12.213 6.58518 12.8685C6.47493 13.183 6.35533 13.4744 6.22884 13.7438C6.12589 13.7873 6.02589 13.8316 5.92934 13.8776C5.58157 14.0432 5.25131 14.1921 4.94497 14.3305C3.54785 14.9604 2.625 15.3771 2.625 16.1998C2.625 16.7971 3.30647 17.167 3.9375 17.167C4.75096 17.167 5.9793 16.1322 6.87652 14.3891C7.8079 14.0391 8.96577 13.7799 9.87964 13.6176C10.6119 14.1539 11.4207 14.667 11.8125 14.667C12.8973 14.667 13.125 14.0696 13.125 13.5688C13.125 12.5836 11.9432 12.5836 11.375 12.5836C11.1985 12.5837 10.7252 12.6333 10.1056 12.7322ZM3.9375 16.3337C3.68755 16.3337 3.51836 16.2214 3.49999 16.1998C3.49999 15.9044 4.42497 15.4869 5.31964 15.0833C5.37645 15.0577 5.43416 15.032 5.49269 15.0055C4.83558 15.913 4.18573 16.3337 3.9375 16.3337ZM7.00001 8.87355C7.00001 8.00035 7.28458 8.00035 7.43753 8.00035C7.74687 8.00035 7.87504 8.00035 7.87504 8.83367C7.87504 9.00945 7.75199 9.44891 7.52682 10.135C7.18327 9.63121 7.00001 9.19949 7.00001 8.87355ZM7.3354 13.3519C7.36276 13.2795 7.38925 13.2063 7.41489 13.1322C7.57723 12.6683 7.72336 12.2516 7.85367 11.8765C8.03525 12.0669 8.23093 12.2618 8.44073 12.4616C8.52276 12.5397 8.72611 12.7155 8.99702 12.9356C8.45775 13.0475 7.88398 13.1863 7.3354 13.3519ZM12.25 13.5688C12.25 13.756 12.25 13.8337 11.8441 13.8361C11.7249 13.8117 11.4493 13.6571 11.1092 13.4366C11.2327 13.4236 11.3237 13.417 11.375 13.417C12.0214 13.417 12.2047 13.4772 12.25 13.5688Z" fill="#B01D1E"/>
</svg>
