<svg width="94" height="94" viewBox="0 0 94 94" fill="none" xmlns="http://www.w3.org/2000/svg">
<rect x="0.515625" y="47.0527" width="66.0095" height="66.0095" transform="rotate(-45 0.515625 47.0527)" fill="#F8F8F8"/>
<path d="M51.0326 40.1168H51.4286L51.5193 39.7314L51.7535 38.736C52.3104 36.3693 51.8082 33.8773 50.3782 31.911L50.2284 31.7051H49.9738H46.7973H46.5427L46.393 31.911C44.9629 33.8773 44.4607 36.3693 45.0176 38.736L45.2518 39.7314L45.3425 40.1168H45.7385H51.0326Z" stroke="black"/>
<path d="M45.7383 33.8516L48.1206 36.2339" stroke="black" stroke-linecap="round" stroke-linejoin="round"/>
<rect x="45.3555" y="40" width="6" height="2" stroke="black"/>
<rect x="39.6211" y="56.0273" width="16.7838" height="3.17647" fill="white" stroke="black"/>
<rect x="41.2461" y="52.8516" width="13.4897" height="3.17647" fill="white" stroke="black"/>
<path d="M52.0915 50.205L50.5032 41.7344H46.0273L44.6797 50.205H52.0915Z" stroke="black"/>
<path d="M52.3832 50C52.5032 51.0875 52.9984 51.9797 53.5064 52.6332H43.3656C43.5103 52.3872 43.6332 52.1154 43.7384 51.8412C43.9716 51.2334 44.1392 50.5563 44.2609 50H52.3832Z" stroke="black"/>
<path d="M46.8555 31.5L47.461 30.2889C47.8296 29.5518 48.8814 29.5518 49.2499 30.2889L49.8555 31.5" stroke="black"/>
</svg>
