<svg width="61" height="60" viewBox="0 0 61 60" fill="none" xmlns="http://www.w3.org/2000/svg">
<rect x="0.644531" y="29.8711" width="42.2421" height="42.2421" transform="rotate(-45 0.644531 29.8711)" fill="#F3F3F3"/>
<path d="M39.6445 24.6352C39.0123 24.9125 38.3387 25.0963 37.6364 25.1856C38.3589 24.7542 38.9103 24.0763 39.1696 23.2592C38.496 23.6609 37.7522 23.9446 36.9596 24.1029C36.32 23.4218 35.4083 23 34.4138 23C32.4843 23 30.931 24.5661 30.931 26.4861C30.931 26.7623 30.9543 27.0279 31.0117 27.2808C28.1143 27.1395 25.5505 25.7508 23.8282 23.6354C23.5275 24.1571 23.3511 24.7542 23.3511 25.397C23.3511 26.604 23.9727 27.6739 24.8992 28.2934C24.3392 28.2827 23.7899 28.1202 23.3245 27.8641C23.3245 27.8748 23.3245 27.8886 23.3245 27.9024C23.3245 29.596 24.5326 31.0027 26.1168 31.3268C25.8331 31.4044 25.5239 31.4416 25.203 31.4416C24.9799 31.4416 24.7547 31.4288 24.5432 31.3821C24.9948 32.7622 26.2762 33.7769 27.7998 33.8099C26.614 34.7374 25.1085 35.2963 23.4786 35.2963C23.1928 35.2963 22.9187 35.2836 22.6445 35.2485C24.1883 36.2441 26.018 36.8125 27.991 36.8125C34.4043 36.8125 37.9105 31.5 37.9105 26.8951C37.9105 26.7411 37.9052 26.5923 37.8978 26.4446C38.5895 25.9538 39.1707 25.3407 39.6445 24.6352Z" fill="black"/>
</svg>
