<svg width="36" height="37" viewBox="0 0 36 37" fill="none" xmlns="http://www.w3.org/2000/svg">
<path d="M24.9424 19.1641H11.0588C10.8615 19.1641 10.7021 19.3266 10.7071 19.5239C10.7491 21.1513 10.8594 22.706 11.0271 24.176C11.0512 24.3875 11.2554 24.5304 11.4617 24.4779C13.5843 23.9371 15.7718 23.6641 18.0006 23.6641C20.2294 23.6641 22.4169 23.9371 24.5394 24.4779C24.7457 24.5304 24.95 24.3875 24.9741 24.176C25.1418 22.7059 25.2521 21.1512 25.294 19.5239C25.2991 19.3266 25.1397 19.1641 24.9424 19.1641Z" fill="#B01D1E"/>
<path d="M24.9741 11.9026C24.95 11.6911 24.7457 11.5482 24.5395 11.6008C22.4169 12.1416 20.2294 12.4146 18.0006 12.4146C15.7718 12.4146 13.5843 12.1416 11.4617 11.6008C11.2555 11.5483 11.0512 11.6912 11.0271 11.9027C10.8594 13.3728 10.7491 14.9275 10.7071 16.5548C10.7021 16.7521 10.8614 16.9146 11.0588 16.9146H24.9423C25.1396 16.9146 25.299 16.7521 25.294 16.5548C25.2521 14.9274 25.1417 13.3727 24.9741 11.9026Z" fill="#B01D1E"/>
<path d="M24.5405 8.935C23.9105 5.44926 22.9449 2.59056 21.8304 0.570344C21.7808 0.480344 21.6938 0.416852 21.593 0.396531C20.4233 0.160844 19.2219 0.0390625 18.0016 0.0390625C16.7812 0.0390625 15.5798 0.160844 14.4101 0.396602C14.3094 0.416922 14.2223 0.480414 14.1727 0.570414C13.0583 2.59056 12.0926 5.44926 11.4626 8.93507C11.4304 9.11352 11.5401 9.28832 11.7152 9.3355C13.7205 9.87564 15.828 10.1641 18.0016 10.1641C20.1751 10.1641 22.2826 9.87564 24.2879 9.33543C24.463 9.28832 24.5728 9.11345 24.5405 8.935Z" fill="#B01D1E"/>
<path d="M25.4826 1.65766C25.1961 1.52667 24.8977 1.8127 25.0109 2.10661C25.0129 2.11181 25.0149 2.11701 25.0169 2.12222C25.7012 3.9014 26.2571 5.92127 26.6731 8.10567C26.7146 8.32399 26.9471 8.44837 27.1527 8.364C28.5366 7.79608 29.8564 7.10315 31.0985 6.2999C31.2824 6.18101 31.3154 5.92458 31.1662 5.76426C31.0234 5.61077 30.8776 5.45932 30.7285 5.31026C29.1851 3.76669 27.4102 2.53896 25.4826 1.65766Z" fill="#B01D1E"/>
<path d="M27.8957 16.914H35.5866C35.7928 16.914 35.9543 16.7374 35.9373 16.532C35.6888 13.5142 34.6957 10.6491 33.0467 8.15094C32.9388 7.98746 32.7197 7.94324 32.5563 8.05117C31.2128 8.93872 29.7887 9.70267 28.2915 10.3359C27.9844 10.4658 27.6754 10.5895 27.3648 10.7073C27.2123 10.7651 27.1192 10.9184 27.1395 11.0802C27.3608 12.845 27.4979 14.6859 27.5448 16.5704C27.5495 16.7613 27.7047 16.914 27.8957 16.914Z" fill="#B01D1E"/>
<path d="M11.4626 27.1431C12.0926 30.6289 13.0583 33.4876 14.1727 35.5078C14.2223 35.5978 14.3094 35.6613 14.4101 35.6816C15.5798 35.9173 16.7812 36.0391 18.0016 36.0391C19.2219 36.0391 20.4233 35.9173 21.593 35.6815C21.6938 35.6612 21.7808 35.5977 21.8304 35.5077C22.9449 33.4876 23.9105 30.6289 24.5405 27.1431C24.5728 26.9646 24.463 26.7898 24.2879 26.7426C22.2826 26.2025 20.1751 25.9141 18.0016 25.9141C15.828 25.9141 13.7205 26.2025 11.7152 26.7427C11.5401 26.7898 11.4304 26.9647 11.4626 27.1431Z" fill="#B01D1E"/>
<path d="M7.70957 25.7421C8.0167 25.6121 8.32565 25.4885 8.63629 25.3707C8.78873 25.3129 8.88189 25.1595 8.86157 24.9977C8.64023 23.233 8.50312 21.3921 8.45629 19.5076C8.45151 19.3167 8.29633 19.1641 8.10536 19.1641H0.41444C0.208284 19.1641 0.0467762 19.3406 0.0637215 19.5461C0.312276 22.5638 1.30544 25.429 2.95441 27.9271C3.06227 28.0905 3.28136 28.1348 3.44477 28.0269C4.78823 27.1393 6.21234 26.3753 7.70957 25.7421Z" fill="#B01D1E"/>
<path d="M31.0985 29.7782C29.8564 28.975 28.5365 28.282 27.1527 27.7141C26.9471 27.6297 26.7146 27.7541 26.6731 27.9724C26.2571 30.1568 25.7013 32.1767 25.0169 33.9559C25.0149 33.9611 25.0129 33.9663 25.0109 33.9715C24.8977 34.2654 25.1961 34.5514 25.4826 34.4204C27.4102 33.5392 29.1851 32.3114 30.7286 30.7679C30.8777 30.6188 31.0234 30.4673 31.1663 30.3138C31.3154 30.1535 31.2823 29.8971 31.0985 29.7782Z" fill="#B01D1E"/>
<path d="M27.5448 19.5077C27.4979 21.3921 27.3608 23.2331 27.1395 24.9978C27.1192 25.1596 27.2123 25.313 27.3648 25.3708C27.6754 25.4885 27.9844 25.6122 28.2915 25.7421C29.7887 26.3755 31.2128 27.1394 32.5563 28.0269C32.7197 28.1348 32.9387 28.0905 33.0467 27.9271C34.6956 25.429 35.6888 22.5639 35.9373 19.5461C35.9543 19.3406 35.7928 19.1641 35.5866 19.1641H27.8957C27.7047 19.1641 27.5495 19.3168 27.5448 19.5077Z" fill="#B01D1E"/>
<path d="M4.90384 6.30186C6.14592 7.10511 7.46575 7.79811 8.84964 8.36595C9.05523 8.45033 9.28769 8.32594 9.32924 8.10762C9.74521 5.92322 10.301 3.90336 10.9854 2.12417C10.9874 2.11897 10.9894 2.11376 10.9914 2.10856C11.1046 1.81465 10.8062 1.52862 10.5197 1.65962C8.59216 2.54098 6.81726 3.76871 5.27369 5.31221C5.12463 5.46127 4.97887 5.61272 4.83599 5.76622C4.68686 5.92653 4.71998 6.18296 4.90384 6.30186Z" fill="#B01D1E"/>
<path d="M8.44877 16.914C8.48681 14.9097 8.62687 12.9521 8.86157 11.0802C8.88189 10.9184 8.78873 10.7651 8.63629 10.7073C8.32565 10.5895 8.0167 10.4658 7.70957 10.3359C6.21234 9.70258 4.78823 8.93863 3.44477 8.05115C3.28136 7.94322 3.06234 7.98752 2.95441 8.15092C1.30544 10.6491 0.312276 13.5142 0.0637215 16.532C0.0467762 16.7374 0.208284 16.914 0.41444 16.914H8.44877Z" fill="#B01D1E"/>
<path d="M10.5178 34.4204C10.8042 34.5514 11.1027 34.2654 10.9894 33.9715C10.9874 33.9663 10.9854 33.9611 10.9834 33.9559C10.2992 32.1767 9.74327 30.1568 9.3273 27.9724C9.28575 27.7541 9.05329 27.6297 8.8477 27.7141C7.46381 28.282 6.14397 28.975 4.9019 29.7782C4.71796 29.8971 4.68492 30.1535 4.83412 30.3138C4.97699 30.4673 5.12275 30.6188 5.27181 30.7679C6.81524 32.3114 8.59014 33.5392 10.5178 34.4204Z" fill="#B01D1E"/>
</svg>
