<svg width="15" height="20" viewBox="0 0 15 20" fill="none" xmlns="http://www.w3.org/2000/svg">
<path d="M14.63 4.58452L10.5327 0.616257C10.4559 0.541853 10.3519 0.5 10.243 0.5H1.63886C0.735003 0.5 0 1.21187 0 2.08731V17.9603C0 18.8358 0.735003 19.5476 1.6389 19.5476H13.1111C14.015 19.5476 14.75 18.8358 14.75 17.9603V4.86507C14.75 4.75967 14.7068 4.65893 14.63 4.58452ZM10.6528 1.8548L13.3512 4.46827H11.4722C11.0205 4.46827 10.6528 4.11213 10.6528 3.67463V1.8548ZM13.9306 17.9603C13.9306 18.3978 13.5629 18.7539 13.1111 18.7539H1.6389C1.18718 18.7539 0.81947 18.3978 0.81947 17.9603V2.08731C0.81947 1.64981 1.18718 1.29368 1.6389 1.29368H9.83333V3.67463C9.83333 4.55004 10.5683 5.26191 11.4722 5.26191H13.9306V17.9603Z" fill="#B01D1E"/>
</svg>
