<svg width="61" height="61" viewBox="0 0 61 61" fill="none" xmlns="http://www.w3.org/2000/svg">
<rect x="0.625" y="30.1836" width="42.2421" height="42.2421" transform="rotate(-45 0.625 30.1836)" fill="#F3F3F3"/>
<path d="M37.7891 26.5989C37.6237 25.9821 37.1391 25.4959 36.5247 25.3298C35.402 25.0215 30.9113 25.0215 30.9113 25.0215C30.9113 25.0215 26.4208 25.0215 25.2981 25.3181C24.6955 25.4841 24.1991 25.9822 24.0337 26.5989C23.7383 27.7256 23.7383 30.0621 23.7383 30.0621C23.7383 30.0621 23.7383 32.4104 24.0337 33.5253C24.1992 34.142 24.6836 34.6283 25.2982 34.7944C26.4326 35.1027 30.9114 35.1027 30.9114 35.1027C30.9114 35.1027 35.402 35.1027 36.5247 34.8061C37.1392 34.6401 37.6237 34.1538 37.7892 33.5371C38.0846 32.4104 38.0846 30.074 38.0846 30.074C38.0846 30.074 38.0964 27.7256 37.7891 26.5989Z" fill="#131313"/>
<path d="M29.5547 32.3892L33.4321 30.0628L29.5547 27.7363V32.3892Z" fill="#F5F5F5"/>
</svg>
