<svg width="13" height="13" viewBox="0 0 13 13" fill="none" xmlns="http://www.w3.org/2000/svg">
<path d="M12.2316 11.2434L9.40385 8.41564C10.1048 7.56107 10.5273 6.46644 10.5273 5.2734C10.5273 2.53685 8.30683 0.316406 5.57028 0.316406C2.83133 0.316406 0.613281 2.53685 0.613281 5.2734C0.613281 8.00996 2.83133 10.2304 5.57028 10.2304C6.76332 10.2304 7.85554 9.81032 8.71011 9.10938L11.5379 11.9347C11.7299 12.1268 12.0396 12.1268 12.2316 11.9347C12.4237 11.7451 12.4237 11.433 12.2316 11.2434ZM5.57028 9.2438C3.37864 9.2438 1.59748 7.46265 1.59748 5.2734C1.59748 3.08416 3.37864 1.3006 5.57028 1.3006C7.75952 1.3006 9.54308 3.08416 9.54308 5.2734C9.54308 7.46265 7.75952 9.2438 5.57028 9.2438Z" fill="black"/>
</svg>
